<svg width="21" height="20" viewBox="0 0 21 20" fill="none" xmlns="http://www.w3.org/2000/svg">
<path fill-rule="evenodd" clip-rule="evenodd" d="M10.741 5.33099V2.80425C10.7409 2.63059 10.6933 2.46025 10.6033 2.31175C10.5132 2.16325 10.3842 2.04227 10.2302 1.96195L6.6751 0.107838C6.53948 0.0369972 6.38874 0 6.23574 0C6.08273 0 5.93199 0.0369972 5.79637 0.107838L2.24121 1.96192C2.08724 2.04224 1.95822 2.16322 1.86817 2.31172C1.77813 2.46022 1.7305 2.63055 1.73047 2.80422V10.1015C1.73047 10.2758 1.87194 10.4172 2.04624 10.4172C2.22054 10.4172 2.36201 10.2758 2.36201 10.1015V2.80425C2.36202 2.74605 2.37798 2.68896 2.40815 2.63918C2.43833 2.58941 2.48157 2.54886 2.53317 2.52193L6.08834 0.667622C6.13383 0.643979 6.18434 0.631636 6.23561 0.631636C6.28687 0.631636 6.33738 0.643979 6.38287 0.667622L9.93823 2.52193C9.98984 2.54886 10.0331 2.58941 10.0633 2.63918C10.0934 2.68896 10.1094 2.74605 10.1094 2.80425V5.33099C10.1094 5.50529 10.2509 5.64676 10.4252 5.64676C10.5995 5.64676 10.741 5.50529 10.741 5.33099Z" fill="white"/>
<path fill-rule="evenodd" clip-rule="evenodd" d="M3.66602 4.8586V7.89205C3.66602 8.30006 3.99675 8.63056 4.40452 8.63056H7.09103C7.26513 8.63056 7.4068 8.48909 7.4068 8.31479C7.4068 8.14069 7.26513 7.99902 7.09103 7.99902H4.40452C4.37616 7.99902 4.34897 7.98775 4.32891 7.9677C4.30886 7.94764 4.29759 7.92044 4.29759 7.89208V4.85863C4.29759 4.6843 4.15612 4.54286 3.98182 4.54286C3.80752 4.54286 3.66602 4.68427 3.66602 4.8586ZM8.80833 7.4211V4.22702C8.80833 3.81901 8.4776 3.48828 8.06982 3.48828H4.61508C4.44075 3.48828 4.29931 3.62975 4.29931 3.80405C4.29931 3.97835 4.44078 4.11983 4.61508 4.11983H8.06982C8.0982 4.11988 8.12541 4.13119 8.14545 4.15128C8.1655 4.17138 8.17676 4.1986 8.17675 4.22699V7.42107C8.17675 7.59517 8.31822 7.73684 8.49252 7.73684C8.66685 7.73691 8.80833 7.5952 8.80833 7.4211Z" fill="white"/>
<path fill-rule="evenodd" clip-rule="evenodd" d="M17.9536 9.80899V8.42919C17.9536 8.24129 17.8979 8.0576 17.7935 7.90138C17.6891 7.74515 17.5407 7.6234 17.367 7.55153C16.3342 7.12394 13.5595 5.97554 12.722 5.62879C12.4893 5.53259 12.2279 5.53259 11.9952 5.62879C11.158 5.97554 8.38305 7.12394 7.3504 7.55153C7.17674 7.62335 7.02829 7.74509 6.92385 7.90132C6.8194 8.05755 6.76366 8.24126 6.76367 8.42919V19.6833C6.76367 19.8576 6.90515 19.999 7.07944 19.999C7.25374 19.999 7.39522 19.8576 7.39522 19.6833V8.42919C7.39525 8.3662 7.41395 8.30463 7.44894 8.25225C7.48393 8.19987 7.53366 8.15903 7.59184 8.13489C8.62469 7.70753 11.3994 6.5591 12.2369 6.21235C12.3149 6.18015 12.4025 6.18015 12.4805 6.21235L17.1253 8.13489C17.1835 8.159 17.2333 8.19983 17.2683 8.25222C17.3033 8.30461 17.3219 8.36619 17.3219 8.42919V9.80899C17.3219 9.98332 17.4634 10.1248 17.6377 10.1248C17.812 10.1248 17.9536 9.98329 17.9536 9.80899Z" fill="white"/>
<path fill-rule="evenodd" clip-rule="evenodd" d="M11.8307 9.81436C11.8307 9.40635 11.4999 9.07562 11.0922 9.07562H9.70836C9.30036 9.07562 8.96962 9.40635 8.96962 9.81436V11.3864C8.96962 11.7941 9.30036 12.1249 9.70836 12.1249H11.0922C11.4999 12.1249 11.8307 11.7941 11.8307 11.3864V9.81436ZM11.1991 9.81436V11.3864C11.1991 11.4147 11.1878 11.4419 11.1678 11.462C11.1477 11.482 11.1205 11.4933 11.0922 11.4933H9.70836C9.6943 11.4933 9.68038 11.4906 9.66738 11.4852C9.65439 11.4798 9.64257 11.472 9.63262 11.462C9.62267 11.4521 9.61477 11.4403 9.60938 11.4273C9.60399 11.4143 9.60121 11.4004 9.6012 11.3864V9.81436C9.60121 9.78594 9.6125 9.75869 9.6326 9.73859C9.65269 9.7185 9.67994 9.70721 9.70836 9.7072H11.0922C11.1205 9.70725 11.1477 9.71856 11.1678 9.73866C11.1878 9.75875 11.1991 9.78597 11.1991 9.81436ZM11.8307 14.3487C11.8307 13.9407 11.4999 13.6102 11.0922 13.6102H9.70836C9.30036 13.6102 8.96962 13.9407 8.96962 14.3487V15.9207C8.96962 16.3287 9.30036 16.6594 9.70836 16.6594H11.0922C11.4999 16.6594 11.8307 16.3287 11.8307 15.9207V14.3487ZM11.1991 14.3487V15.9207C11.1991 15.949 11.1878 15.9763 11.1678 15.9964C11.1477 16.0165 11.1205 16.0278 11.0922 16.0278H9.70836C9.67994 16.0278 9.65269 16.0165 9.6326 15.9964C9.6125 15.9763 9.60121 15.9491 9.6012 15.9207V14.3487C9.60121 14.3346 9.60399 14.3207 9.60938 14.3077C9.61477 14.2947 9.62267 14.2829 9.63262 14.273C9.64257 14.2631 9.65439 14.2552 9.66738 14.2498C9.68038 14.2445 9.6943 14.2417 9.70836 14.2417H11.0922C11.1062 14.2417 11.1201 14.2445 11.1331 14.2499C11.1461 14.2552 11.1578 14.2631 11.1678 14.2731C11.1777 14.283 11.1856 14.2948 11.191 14.3077C11.1963 14.3207 11.1991 14.3346 11.1991 14.3487ZM15.7469 10.5442V9.81436C15.7469 9.40635 15.4161 9.07562 15.0083 9.07562H13.6245C13.2165 9.07562 12.886 9.40635 12.886 9.81436V11.3864C12.886 11.7941 13.2166 12.1249 13.6245 12.1249H15.0083C15.1827 12.1249 15.3241 11.9834 15.3241 11.8091C15.3241 11.6348 15.1826 11.4933 15.0083 11.4933H13.6245C13.6105 11.4933 13.5966 11.4906 13.5836 11.4852C13.5706 11.4798 13.5588 11.472 13.5489 11.462C13.5389 11.4521 13.5311 11.4403 13.5257 11.4273C13.5203 11.4143 13.5176 11.4004 13.5176 11.3864V9.81439C13.5176 9.80033 13.5203 9.7864 13.5257 9.7734C13.531 9.7604 13.5389 9.74859 13.5488 9.73864C13.5588 9.72869 13.5706 9.72079 13.5836 9.7154C13.5966 9.71001 13.6105 9.70723 13.6245 9.70723H15.0083C15.0224 9.70724 15.0363 9.71002 15.0493 9.71541C15.0623 9.7208 15.0741 9.7287 15.084 9.73865C15.0939 9.7486 15.1018 9.76041 15.1072 9.77341C15.1126 9.7864 15.1153 9.80033 15.1153 9.81439V10.5443C15.1153 10.7186 15.2568 10.8601 15.4311 10.8601C15.6054 10.8601 15.7469 10.7186 15.7469 10.5442ZM14.5873 13.6101H13.6245C13.2165 13.6101 12.886 13.9407 12.886 14.3486V15.9206C12.886 16.3286 13.2166 16.6594 13.6245 16.6594H14.5873C14.7616 16.6594 14.903 16.5179 14.903 16.3436C14.903 16.1693 14.7616 16.0278 14.5873 16.0278H13.6245C13.6105 16.0278 13.5966 16.025 13.5836 16.0197C13.5706 16.0143 13.5588 16.0064 13.5488 15.9964C13.5389 15.9865 13.531 15.9747 13.5257 15.9617C13.5203 15.9487 13.5176 15.9347 13.5176 15.9207V14.3487C13.5176 14.3346 13.5203 14.3207 13.5257 14.3077C13.5311 14.2947 13.5389 14.283 13.5489 14.273C13.5588 14.2631 13.5706 14.2552 13.5836 14.2498C13.5966 14.2445 13.6105 14.2417 13.6245 14.2417H14.5873C14.7616 14.2417 14.903 14.1001 14.903 13.926C14.9031 13.7516 14.7616 13.6101 14.5873 13.6101ZM5.91992 3.80405V8.31479C5.91992 8.48909 6.0614 8.63056 6.23569 8.63056C6.41003 8.63056 6.55147 8.48909 6.55147 8.31479V3.80405C6.55147 3.62975 6.40999 3.48828 6.23569 3.48828C6.06143 3.48828 5.91992 3.62975 5.91992 3.80405Z" fill="white"/>
<path fill-rule="evenodd" clip-rule="evenodd" d="M3.98127 6.37568H8.492C8.66633 6.37568 8.80777 6.23421 8.80777 6.05991C8.80777 5.88558 8.6663 5.74414 8.492 5.74414H3.98127C3.80697 5.74414 3.66549 5.88561 3.66549 6.05991C3.66546 6.23421 3.80693 6.37568 3.98127 6.37568ZM0.362303 14.1948C0.362303 14.1948 0.362104 14.1948 0.362104 14.195C0.135166 14.6119 0 15.1224 0 15.674C0 17.1281 0.943783 18.2717 2.04717 18.2717C3.15056 18.2717 4.09434 17.1281 4.09434 15.674C4.09434 15.1226 3.95917 14.6123 3.73309 14.1948C3.73309 14.1946 3.7329 14.1944 3.7329 14.1942C3.58994 13.9319 3.53436 13.6049 3.57478 13.2866C3.57478 13.2862 3.57498 13.2858 3.57498 13.2854C3.58719 13.1859 3.59331 13.0858 3.5933 12.9856C3.5933 11.8959 2.87395 11.0485 2.0472 11.0485C1.22046 11.0485 0.501299 11.8959 0.501299 12.9856C0.501299 13.0881 0.507607 13.1887 0.520453 13.2864C0.560643 13.6052 0.505262 13.9323 0.362303 14.1948ZM0.916836 14.4969C1.12 14.1239 1.20421 13.6599 1.14694 13.207C1.14675 13.2064 1.14675 13.206 1.14675 13.2053C1.13728 13.1325 1.13264 13.0591 1.13284 12.9856C1.13284 12.5431 1.28862 12.1477 1.54022 11.9045C1.68295 11.7666 1.85685 11.6801 2.04717 11.6801C2.23748 11.6801 2.41139 11.7666 2.55412 11.9045C2.80589 12.1477 2.96169 12.543 2.96169 12.9856C2.96169 13.0614 2.95707 13.1357 2.94802 13.2083C2.89076 13.6599 2.97497 14.1237 3.17813 14.4965C3.35791 14.8281 3.46276 15.235 3.46276 15.674C3.46276 16.7393 2.85539 17.6401 2.0472 17.6401C1.23901 17.6401 0.63161 16.7392 0.63161 15.674C0.631577 15.2352 0.736428 14.8285 0.916836 14.4969ZM15.6757 13.2281C15.4086 13.7188 15.2498 14.3199 15.2498 14.9691C15.2498 16.6717 16.3464 18.0167 17.6382 18.0167C18.93 18.0167 20.0269 16.6716 20.0269 14.9691C20.0269 14.3201 19.8681 13.7193 19.602 13.2281C19.6018 13.2279 19.6018 13.2277 19.6016 13.2273C19.4245 12.9024 19.3553 12.4976 19.4054 12.103V12.102C19.4195 11.9875 19.4268 11.8702 19.4268 11.7506C19.4268 10.4845 18.599 9.49378 17.6382 9.49378C16.6776 9.49378 15.8496 10.4845 15.8496 11.7506C15.8496 11.8706 15.8572 11.9883 15.8721 12.1028C15.9223 12.4978 15.853 12.903 15.6757 13.2281ZM16.2305 13.5302C16.4678 13.0946 16.5659 12.5525 16.4987 12.0235C16.4987 12.0228 16.4985 12.0224 16.4985 12.0218C16.4869 11.9319 16.4811 11.8413 16.4812 11.7506C16.4812 11.2022 16.6762 10.7129 16.9882 10.4115C17.1711 10.2346 17.3945 10.1254 17.6383 10.1254C17.8823 10.1254 18.1057 10.2346 18.2884 10.4115C18.6004 10.7129 18.7953 11.2022 18.7953 11.7506C18.7953 11.8439 18.7897 11.9354 18.7787 12.0247C18.7118 12.5523 18.8099 13.0942 19.0471 13.5296C19.2667 13.935 19.3953 14.4325 19.3953 14.9691C19.3953 16.2826 18.6349 17.3851 17.6383 17.3851C16.6416 17.3851 15.8814 16.2826 15.8814 14.9691C15.8814 14.4327 16.0099 13.9355 16.2305 13.5302Z" fill="white"/>
<path fill-rule="evenodd" clip-rule="evenodd" d="M1.73047 14.3585V19.613C1.73047 19.7874 1.87194 19.9288 2.04624 19.9288C2.22054 19.9288 2.36205 19.7873 2.36205 19.613V14.3585C2.36205 14.1842 2.22057 14.0427 2.04624 14.0427C1.87191 14.0427 1.73047 14.1842 1.73047 14.3585ZM17.3216 13.3939V19.6848C17.3216 19.8592 17.4631 20.0006 17.6374 20.0006C17.8117 20.0006 17.9531 19.8591 17.9531 19.6848V13.3939C17.9531 13.2198 17.8117 13.0781 17.6374 13.0781C17.4631 13.0781 17.3216 13.2198 17.3216 13.3939Z" fill="white"/>
<path fill-rule="evenodd" clip-rule="evenodd" d="M0.315805 20.0007H19.7111C19.8855 20.0007 20.0269 19.8592 20.0269 19.6849C20.0269 19.5106 19.8854 19.3691 19.7111 19.3691H0.315772C0.14144 19.3691 0 19.5106 0 19.6849C0 19.8592 0.141473 20.0007 0.315805 20.0007Z" fill="white"/>
</svg>
