<svg width="20" height="19" viewBox="0 0 20 19" fill="none" xmlns="http://www.w3.org/2000/svg">
<path d="M15.5085 18.9998H4.21197C2.93128 18.9998 1.8894 17.9579 1.8894 16.6772V9.15796C1.8894 8.88898 2.10745 8.6709 2.37646 8.6709C2.64544 8.6709 2.86352 8.88898 2.86352 9.15796V16.6772C2.86352 17.4208 3.46845 18.0257 4.21197 18.0257H15.5085C16.2521 18.0257 16.857 17.4208 16.857 16.6772V9.15796C16.857 8.88898 17.0751 8.6709 17.3441 8.6709C17.613 8.6709 17.8311 8.88898 17.8311 9.15796V16.6772C17.8311 17.9578 16.7892 18.9998 15.5085 18.9998Z" fill="white"/>
<path d="M12.4345 16.8576C12.1655 16.8576 11.9474 16.6395 11.9474 16.3705V11.8539C11.9473 11.7918 11.9226 11.7322 11.8787 11.6883C11.8348 11.6444 11.7753 11.6197 11.7132 11.6197H7.97045C7.90835 11.6197 7.84882 11.6444 7.80491 11.6883C7.761 11.7322 7.7363 11.7918 7.73623 11.8539V16.3705C7.73623 16.6395 7.51819 16.8576 7.24917 16.8576C6.98016 16.8576 6.76211 16.6395 6.76211 16.3705V11.8539C6.76211 11.1876 7.30415 10.6455 7.97045 10.6455H11.7132C12.3795 10.6455 12.9215 11.1876 12.9215 11.8539V16.3705C12.9215 16.6395 12.7035 16.8576 12.4345 16.8576ZM0.487393 8.47625C0.414305 8.47636 0.342133 8.45999 0.276245 8.42836C0.210356 8.39672 0.152447 8.35065 0.106825 8.29354C-0.0612692 8.08352 -0.0272919 7.77703 0.182728 7.60893L9.55581 0.106825C9.76583 -0.0612691 10.0723 -0.0272919 10.2404 0.182728C10.4085 0.392748 10.3745 0.699244 10.1645 0.867338L0.791435 8.36941C0.705238 8.43865 0.597959 8.47635 0.487393 8.47625Z" fill="white"/>
<path d="M19.2329 8.47629C19.1261 8.47629 19.0187 8.44138 18.9289 8.36945L9.55577 0.867338C9.34575 0.699283 9.31178 0.392748 9.47987 0.182728C9.64797 -0.0272919 9.95458 -0.0612691 10.1644 0.106825L19.5375 7.60893C19.7476 7.77699 19.7816 8.08352 19.6134 8.29354C19.5678 8.35065 19.5099 8.39674 19.444 8.42838C19.3782 8.46002 19.306 8.4764 19.2329 8.47629Z" fill="white"/>
</svg>
