<svg width="98" height="111" viewBox="0 0 98 111" fill="none" xmlns="http://www.w3.org/2000/svg">
<path d="M70.5938 30.4002C73.8046 30.4002 76.4074 27.4229 76.4074 23.7502C76.4074 20.0775 73.8046 17.1001 70.5938 17.1001C67.3831 17.1001 64.7803 20.0775 64.7803 23.7502C64.7803 27.4229 67.3831 30.4002 70.5938 30.4002Z" fill="#D5D5D3"/>
<path d="M81.3893 41.8003H78.0672V36.7667L71.7871 27.7877L74.3812 25.4127L81.0253 34.9128C81.261 35.2498 81.3894 35.6686 81.3893 36.1003V41.8003Z" fill="#D5D5D3"/>
<path d="M51.4911 17.1004L48.169 19.0004V20.9004C48.169 21.9083 47.819 22.8748 47.196 23.5875C46.573 24.3001 45.728 24.7005 44.847 24.7005H34.8809V5.70029H48.169V11.4003L49.2757 13.3004L51.4911 17.1004Z" fill="#FDC8A2"/>
<path d="M49.2761 13.3H41.5254V9.5H48.1695V11.4L49.2761 13.3Z" fill="#FDB683"/>
<path d="M4.9834 77.9005H16.6105V89.3006H4.9834V77.9005Z" fill="#C7483C"/>
<path d="M21.5939 110.201C28.0154 110.201 33.2211 104.246 33.2211 96.9009C33.2211 89.5555 28.0154 83.6008 21.5939 83.6008C15.1724 83.6008 9.9668 89.5555 9.9668 96.9009C9.9668 104.246 15.1724 110.201 21.5939 110.201Z" fill="#34507B"/>
<path d="M21.5934 102.601C24.3455 102.601 26.5765 100.049 26.5765 96.901C26.5765 93.753 24.3455 91.201 21.5934 91.201C18.8413 91.201 16.6104 93.753 16.6104 96.901C16.6104 100.049 18.8413 102.601 21.5934 102.601Z" fill="#D5D5D3"/>
<path d="M4.98317 26.6001H24.9154C25.7965 26.6001 26.6414 27.0005 27.2644 27.7131C27.8874 28.4258 28.2374 29.3923 28.2374 30.4002V57.0004H1.66113V30.4002C1.66113 29.3923 2.01113 28.4258 2.63414 27.7131C3.25714 27.0005 4.10211 26.6001 4.98317 26.6001Z" fill="#D65246"/>
<path d="M6.64551 39.9002H9.96755V51.3003H6.64551V39.9002Z" fill="#DF6257"/>
<path d="M1.66113 32.3004H28.2374V36.1005H1.66113V32.3004Z" fill="#C7483C"/>
<path d="M61.2562 91.4316L71.6256 79.5702C72.56 78.5013 73.085 77.0515 73.085 75.5398V60.8007C73.085 58.785 73.785 56.8519 75.031 55.4266C76.277 54.0013 77.9669 53.2006 79.7291 53.2006V62.7007C79.7291 63.9483 79.9439 65.1836 80.3613 66.3362C80.7786 67.4888 81.3904 68.5361 82.1616 69.4183C82.9328 70.3004 83.8483 71.0002 84.8559 71.4776C85.8636 71.9551 86.9435 72.2008 88.0342 72.2008V79.8009H84.3293C83.4035 79.8008 82.488 80.0221 81.6414 80.4505C80.7948 80.8789 80.0358 81.5049 79.413 82.2885L66.7569 98.2134C66.1342 98.997 65.3752 99.623 64.5286 100.051C63.682 100.48 62.7664 100.701 61.8407 100.701H1.66113C1.66109 94.8363 3.46049 89.1576 6.74561 84.6549C10.0307 80.1522 14.5932 77.1112 19.6375 76.0621L19.9324 76.0008V68.4008H48.1697C48.1697 69.9828 47.6708 71.5117 46.7646 72.7069C45.8585 73.902 44.6058 74.6832 43.2367 74.9069C41.3787 75.2105 39.6789 76.2706 38.4492 77.8925C37.2195 79.5143 36.5425 81.5892 36.5425 83.736V84.1823C36.5426 86.5477 37.3641 88.8161 38.8262 90.4887C40.2884 92.1612 42.2715 93.1009 44.3394 93.101H57.7328C59.0543 93.101 60.3217 92.5005 61.2562 91.4316Z" fill="#D65246"/>
<path d="M18.33 86.3497L17.0556 82.8406C18.1736 82.3103 19.3378 81.9181 20.5286 81.6705L21.1226 85.4092C20.1651 85.6081 19.229 85.9234 18.33 86.3497ZM11.3199 93.9289L8.33008 92.2726C9.6174 89.2348 11.5757 86.634 14.0114 84.7276L15.8863 87.8648C13.9287 89.397 12.3546 91.4873 11.3199 93.9289Z" fill="#DF6257"/>
<path d="M28.2373 57.0003H1.66102C1.22049 57.0003 0.798003 57.2005 0.486501 57.5568C0.175 57.9131 6.64049e-09 58.3964 6.64049e-09 58.9003V61.1138C-4.91665e-05 62.0041 0.273 62.8661 0.771559 63.5497C1.27012 64.2332 1.96257 64.695 2.72822 64.8545L19.6353 68.3695C19.7332 68.3905 19.8326 68.4008 19.9322 68.4004H28.2373C28.6779 68.4004 29.1004 68.2002 29.4119 67.8439C29.7234 67.4876 29.8984 67.0043 29.8984 66.5004V58.9003C29.8984 58.3964 29.7234 57.9131 29.4119 57.5568C29.1004 57.2005 28.6779 57.0003 28.2373 57.0003ZM26.5763 64.6004H20.0817L3.32204 61.1138V60.8003H26.5763V64.6004Z" fill="#D5D5D3"/>
<path d="M49.8297 9.50008H41.5246V14.0126C41.5247 14.8999 41.3178 15.7711 40.9254 16.5364C40.5329 17.3017 39.9691 17.9334 39.2921 18.3664C38.6151 18.7993 37.8494 19.0179 37.0739 18.9994C36.2984 18.981 35.5413 18.7263 34.8805 18.2615C34.6521 18.1013 34.4373 17.9168 34.239 17.7105C33.436 16.8819 32.9325 15.7401 32.8271 14.509L32.4721 10.4453C32.3563 9.12462 32.4839 7.79081 32.8465 6.52994C33.2092 5.26908 33.7988 4.10915 34.5774 3.12497C35.356 2.14079 36.3063 1.35422 37.367 0.815969C38.4277 0.277722 39.5752 -0.000243404 40.7356 1.59927e-07H41.5246C43.7273 1.59927e-07 45.8397 1.0009 47.3972 2.78251C48.9547 4.56412 49.8297 6.98051 49.8297 9.50008Z" fill="#D65246"/>
<path d="M34.8809 51.3004V55.1004C34.8809 56.6121 35.4059 58.062 36.3404 59.1309C37.2749 60.1999 38.5423 60.8004 39.8639 60.8004H56.4741L48.169 85.5007H56.4741L64.2809 64.0027C64.7581 62.6885 64.9617 61.2655 64.8756 59.8459C64.7896 58.4264 64.4162 57.0491 63.7851 55.8229C63.0761 54.4456 62.0651 53.3038 60.852 52.5106C59.639 51.7174 58.2659 51.3003 56.8686 51.3004H34.8809Z" fill="#7A432A"/>
<path d="M54.8131 38.0004L44.847 24.7003H34.8809V51.3005H48.169V41.8005L50.0316 43.9311C50.9661 45 52.2335 45.6005 53.5551 45.6005H69.7623V38.0004H54.8131ZM73.0843 53.2006H86.3725V39.9004H83.4426C82.3266 39.9004 81.2325 40.2559 80.2831 40.9271C79.3337 41.5982 78.5665 42.5586 78.0674 43.7005L73.0843 45.6005V53.2006Z" fill="#D65246"/>
<path d="M98.0004 96.9009C97.9986 100.344 96.8291 103.651 94.7381 106.128C92.6471 108.604 89.7978 110.056 86.7899 110.177C83.782 110.299 80.8502 109.08 78.6119 106.779C76.3735 104.477 75.0031 101.272 74.7892 97.8378C74.5753 94.4037 75.5345 91.0086 77.4651 88.3673C79.3956 85.7259 82.1467 84.0445 85.1392 83.6768C88.1318 83.3092 91.1323 84.2841 93.5091 86.3963C95.8859 88.5084 97.4535 91.5931 97.882 95.0009C97.9611 95.6301 98.0007 96.2651 98.0004 96.9009Z" fill="#34507B"/>
<path d="M97.8818 95.0007H84.712L78.1343 106.287C76.8358 104.795 75.8655 102.972 75.3031 100.967C74.7408 98.9625 74.6025 96.8338 74.8996 94.7562C75.1967 92.6785 75.9207 90.7112 77.0121 89.0161C78.1035 87.3209 79.5311 85.9464 81.1775 85.0054C82.8238 84.0645 84.642 83.584 86.4824 83.6036C88.3227 83.6232 90.1327 84.1422 91.7635 85.118C93.3944 86.0939 94.7993 87.4986 95.863 89.2167C96.9266 90.9348 97.6185 92.9171 97.8818 95.0007Z" fill="#2F486E"/>
<path d="M91.1474 96.901C91.1487 98.3305 90.6809 99.7086 89.8364 100.762C88.992 101.816 87.8324 102.469 86.5873 102.592C85.3422 102.715 84.1021 102.298 83.1125 101.425C82.123 100.552 81.456 99.2857 81.2435 97.8769C81.0311 96.4681 81.2887 95.0195 81.9653 93.8176C82.642 92.6157 83.6884 91.7481 84.8975 91.3865C86.1066 91.0249 87.3904 91.1957 88.4947 91.865C89.599 92.5344 90.4434 93.6535 90.8609 95.0009C91.0516 95.6106 91.1486 96.2534 91.1474 96.901Z" fill="#CECECC"/>
<path d="M90.862 95.001H84.712L81.8945 99.8341C81.5357 99.1513 81.3061 98.3899 81.2204 97.5992C81.1348 96.8085 81.195 96.006 81.3973 95.2436C81.5996 94.4812 81.9394 93.7758 82.3947 93.1729C82.8501 92.57 83.4109 92.083 84.041 91.7434C84.6711 91.4038 85.3565 91.2191 86.0528 91.2013C86.7492 91.1834 87.4411 91.3328 88.0838 91.6398C88.7266 91.9467 89.3059 92.4045 89.7844 92.9834C90.263 93.5624 90.63 94.2497 90.862 95.001Z" fill="#C6C6C4"/>
<path d="M78.8984 93.8493L83.9853 99.6681C84.2716 99.9955 84.6115 100.255 84.9855 100.433C85.3596 100.61 85.7605 100.701 86.1654 100.701C86.5703 100.701 86.9712 100.61 87.3453 100.433C87.7193 100.255 88.0592 99.9955 88.3455 99.6681C88.6318 99.3406 88.8589 98.9518 89.0138 98.5239C89.1688 98.096 89.2485 97.6374 89.2485 97.1743C89.2485 96.7111 89.1688 96.2525 89.0138 95.8247C88.8589 95.3968 88.6318 95.008 88.3455 94.6805L83.2586 88.8617L78.8984 93.8493Z" fill="#D5D5D3"/>
<path d="M71.4238 102.601H78.0679L84.712 91.2008H98.0001C98.0001 88.1773 96.9501 85.2777 95.0811 83.1397C93.2121 81.0018 90.6772 79.8007 88.034 79.8007H84.712C81.1877 79.8007 77.8079 81.4022 75.3158 84.2527C72.8238 87.1033 71.4238 90.9695 71.4238 95.0009V102.601Z" fill="#D65246"/>
<path d="M69.7617 38.0003V45.6004L73.0838 47.5004V51.3005H79.7278V41.8004L69.7617 38.0003Z" fill="#FDC8A2"/>
<path d="M73.0838 53.2005C74.9185 53.2005 76.4058 51.4992 76.4058 49.4005C76.4058 47.3018 74.9185 45.6005 73.0838 45.6005C71.249 45.6005 69.7617 47.3018 69.7617 49.4005C69.7617 51.4992 71.249 53.2005 73.0838 53.2005Z" fill="#34507B"/>
<path d="M19.9336 74.1004H31.5607V77.9005H19.9336V74.1004ZM54.412 96.9007H23.2556V93.1006H57.734C59.0556 93.1006 60.323 92.5001 61.2575 91.4312L61.4591 91.2006L57.9354 95.2313C57.0009 96.3001 55.7335 96.9006 54.412 96.9007ZM84.7134 77.9005C81.1822 77.9059 77.7663 79.3391 75.0695 81.9468C72.3727 84.5544 70.5686 88.1686 69.976 92.1506H73.358C73.9291 89.1909 75.3654 86.5424 77.4299 84.6425C79.4945 82.7425 82.0637 81.7048 84.7134 81.7005H88.0354V77.9005H84.7134Z" fill="#C7483C"/>
<path d="M44.8485 60.8004H31.5603C29.7256 60.8004 28.2383 62.5017 28.2383 64.6004C28.2383 66.6991 29.7256 68.4005 31.5603 68.4005H44.8485C46.6832 68.4005 48.1705 66.6991 48.1705 64.6004C48.1705 62.5017 46.6832 60.8004 44.8485 60.8004Z" fill="#34507B"/>
<path d="M48.1702 42.1264L42.7007 35.8698L40.3516 38.5567L48.1702 47.5003V42.1264Z" fill="#C7483C"/>
<path d="M48.1689 85.5007H58.1351C59.0161 85.5007 59.8611 85.901 60.4841 86.6137C61.1071 87.3263 61.4571 88.2929 61.4571 89.3007C61.4571 90.3085 61.1071 91.2751 60.4841 91.9877C59.8611 92.7004 59.0161 93.1007 58.1351 93.1007H48.1689V85.5007Z" fill="#D5D5D3"/>
</svg>
