<svg width="20" height="20" viewBox="0 0 20 20" fill="none" xmlns="http://www.w3.org/2000/svg">
<path fill-rule="evenodd" clip-rule="evenodd" d="M14.0716 20.0016C10.8261 20.0016 8.18994 17.3654 8.18994 14.1199C8.18994 10.8745 10.8261 8.23828 14.0716 8.23828C17.3053 8.23828 19.9416 10.8745 19.9416 14.1199C19.9416 17.3654 17.3053 20.0016 14.0716 20.0016ZM14.0716 8.70694C11.0839 8.70694 8.6586 11.144 8.6586 14.1199C8.6586 17.1076 11.0839 19.533 14.0716 19.533C17.0476 19.533 19.4729 17.1076 19.4729 14.1199C19.4729 11.144 17.0476 8.70694 14.0716 8.70694Z" fill="white"/>
<path fill-rule="evenodd" clip-rule="evenodd" d="M14.0717 20.0016C12.5486 20.0016 11.3418 17.4123 11.3418 14.1199C11.3418 10.8276 12.5486 8.23828 14.0717 8.23828C15.5949 8.23828 16.79 10.8276 16.79 14.1199C16.79 17.4123 15.5949 20.0016 14.0717 20.0016ZM14.0717 8.70694C12.8532 8.70694 11.8222 11.1908 11.8222 14.1199C11.8222 17.0491 12.8532 19.533 14.0717 19.533C15.2902 19.533 16.3213 17.0491 16.3213 14.1199C16.3213 11.1908 15.2902 8.70694 14.0717 8.70694Z" fill="white"/>
<path fill-rule="evenodd" clip-rule="evenodd" d="M14.0716 16.0969C11.2245 16.0969 8.18994 15.4056 8.18994 14.1168C8.18994 12.828 11.2245 12.1367 14.0716 12.1367C16.9187 12.1367 19.9416 12.828 19.9416 14.1168C19.9416 15.4056 16.9187 16.0969 14.0716 16.0969ZM14.0716 12.6054C10.9785 12.6054 8.6586 13.4021 8.6586 14.1168C8.6586 14.8315 10.9785 15.6282 14.0716 15.6282C17.1648 15.6282 19.4729 14.8315 19.4729 14.1168C19.4729 13.4021 17.1648 12.6054 14.0716 12.6054Z" fill="white"/>
<path fill-rule="evenodd" clip-rule="evenodd" d="M14.0715 20C13.9426 20 13.8371 19.8946 13.8371 19.7657V8.471C13.8371 8.16637 14.3058 8.16637 14.3058 8.471V19.7657C14.3058 19.8946 14.2004 20 14.0715 20ZM14.2472 4.80375H0.714704C0.316344 4.80375 0 4.49912 0 4.10076V0.702988C0 0.316344 0.316344 0 0.714704 0H14.2472C14.6339 0 14.9502 0.316344 14.9502 0.702988V4.10076C14.9502 4.49912 14.6339 4.80375 14.2472 4.80375ZM0.714704 0.468658C0.574107 0.468658 0.468658 0.574107 0.468658 0.702988V4.10076C0.468658 4.22964 0.574107 4.34681 0.714704 4.34681H14.2472C14.3761 4.34681 14.4815 4.24136 14.4815 4.10076V0.702988C14.4815 0.574107 14.3761 0.468658 14.2472 0.468658H0.714704Z" fill="white"/>
<path fill-rule="evenodd" clip-rule="evenodd" d="M9.49033 11.0489H0.714704C0.316344 11.0489 0 10.7326 0 10.3459V6.94816C0 6.56152 0.316344 6.24517 0.714704 6.24517H14.2472C14.6339 6.24517 14.9502 6.56152 14.9502 6.94816V8.51817C14.9502 8.82279 14.4815 8.82279 14.4815 8.51817V6.94816C14.4815 6.81928 14.3761 6.71383 14.2472 6.71383H0.714704C0.574107 6.71383 0.468658 6.81928 0.468658 6.94816V10.3459C0.468658 10.4748 0.574107 10.5803 0.714704 10.5803H9.49033C9.79496 10.5803 9.79496 11.0489 9.49033 11.0489ZM9.256 17.2938H0.714704C0.316344 17.2938 0 16.9775 0 16.5908V13.193C0 12.8064 0.316344 12.49 0.714704 12.49H8.59988C8.90451 12.49 8.90451 12.9587 8.59988 12.9587H0.714704C0.574107 12.9587 0.468658 13.0642 0.468658 13.193V16.5908C0.468658 16.7197 0.574107 16.8251 0.714704 16.8251H9.256C9.56063 16.8251 9.56063 17.2938 9.256 17.2938ZM2.12068 3.28091C0.984183 3.28091 0.984183 1.53516 2.12068 1.53516C3.26889 1.53516 3.26889 3.28091 2.12068 3.28091ZM2.12068 2.00381C1.59344 2.00381 1.59344 2.81225 2.12068 2.81225C2.64792 2.81225 2.64792 2.00381 2.12068 2.00381ZM6.79555 2.6365H5.02636C4.72173 2.6365 4.72173 2.16785 5.02636 2.16785H6.79555C7.10018 2.16785 7.10018 2.6365 6.79555 2.6365ZM10.123 2.6365H8.36555C8.06093 2.6365 8.06093 2.16785 8.36555 2.16785H10.123C10.4394 2.16785 10.4394 2.6365 10.123 2.6365ZM13.4622 2.6365H11.7047C11.4001 2.6365 11.4001 2.16785 11.7047 2.16785H13.4622C13.7668 2.16785 13.7786 2.6365 13.4622 2.6365Z" fill="white"/>
<path fill-rule="evenodd" clip-rule="evenodd" d="M2.12093 9.51462C0.98443 9.51462 0.98443 7.78058 2.12093 7.78058C3.26914 7.78058 3.26914 9.51462 2.12093 9.51462ZM2.12093 8.24924C1.59369 8.24924 1.59369 9.04596 2.12093 9.04596C2.64817 9.04596 2.64817 8.24924 2.12093 8.24924ZM6.7958 8.88193H5.02661C4.72198 8.88193 4.72198 8.41327 5.02661 8.41327H6.7958C7.10042 8.41327 7.10042 8.88193 6.7958 8.88193ZM10.1233 8.88193H8.3658C8.06117 8.88193 8.06117 8.41327 8.3658 8.41327H10.1233C10.4396 8.41327 10.4396 8.88193 10.1233 8.88193ZM2.12093 15.7595C0.98443 15.7595 0.98443 14.0255 2.12093 14.0255C3.26914 14.0255 3.26914 15.7595 2.12093 15.7595ZM2.12093 14.4941C1.59369 14.4941 1.59369 15.2908 2.12093 15.2908C2.64817 15.2908 2.64817 14.4941 2.12093 14.4941ZM6.7958 15.1268H5.02661C4.72198 15.1268 4.72198 14.6581 5.02661 14.6581H6.7958C7.10042 14.6581 7.10042 15.1268 6.7958 15.1268ZM9.88894 6.71438H5.06176C4.93288 6.71438 4.82743 6.60893 4.82743 6.48005V4.58199C4.82743 4.4531 4.93288 4.34766 5.06176 4.34766H9.88894C10.0178 4.34766 10.1233 4.4531 10.1233 4.58199V6.48005C10.1233 6.60893 10.0178 6.71438 9.88894 6.71438ZM5.29609 6.24572H9.65461V4.81631H5.29609V6.24572ZM8.60013 12.9593H5.06176C4.93288 12.9593 4.82743 12.8538 4.82743 12.7249V10.8151C4.82743 10.6863 4.93288 10.5808 5.06176 10.5808H9.49058C9.79521 10.5808 9.79521 11.0495 9.49058 11.0495H5.29609V12.4906H8.60013C8.91648 12.4906 8.90476 12.9593 8.60013 12.9593Z" fill="white"/>
</svg>
