<svg width="20" height="19" viewBox="0 0 20 19" fill="none" xmlns="http://www.w3.org/2000/svg">
<path d="M14.9714 17.22C14.8644 17.0428 14.6282 16.9825 14.4436 17.0853L14.4287 17.0935C14.2443 17.1964 14.1815 17.4234 14.2885 17.6007C14.3139 17.6429 14.3478 17.6798 14.3881 17.7094C14.4284 17.739 14.4743 17.7606 14.5234 17.7731C14.5724 17.7857 14.6235 17.7888 14.6737 17.7823C14.724 17.7758 14.7724 17.7599 14.8163 17.7354L14.8312 17.7272C15.0156 17.6243 15.0784 17.3973 14.9714 17.22Z" fill="white"/>
<path d="M18.4475 4.75295C17.1275 2.55588 14.9961 0.984332 12.446 0.327716C9.89601 -0.328899 7.23246 0.00809223 4.94609 1.27653C2.65975 2.54497 1.02429 4.59312 0.34102 7.04357C-0.342246 9.49403 0.00840391 12.0536 1.3284 14.2506C2.51247 16.2214 4.39439 17.7192 6.62751 18.468C7.67774 18.8201 8.78214 19 9.89447 19C11.0941 19 12.2916 18.7905 13.4236 18.3724C13.6226 18.2989 13.722 18.0842 13.6454 17.8929C13.5689 17.7016 13.3454 17.6061 13.1464 17.6798C10.1335 18.7926 6.87173 18.2869 4.43482 16.5292L4.7808 14.7938L4.94752 14.7418C5.57749 14.5451 5.92351 13.8925 5.71891 13.2871L5.59657 12.9254C5.56827 12.8422 5.56841 12.7526 5.59695 12.6695C5.65 12.514 5.66805 12.3494 5.64991 12.1867C5.63177 12.024 5.57785 11.8669 5.49172 11.7257C5.40554 11.5845 5.28913 11.4626 5.1502 11.3679C5.01128 11.2733 4.85301 11.2081 4.68588 11.1766L3.81427 11.013L2.13254 9.7843C2.0829 9.74802 2.02486 9.72384 1.96338 9.71382C1.9019 9.7038 1.83881 9.70823 1.7795 9.72674L0.794896 10.0341C0.774076 9.69666 0.773625 9.35836 0.793544 9.02088C0.820744 9.04489 0.847322 9.06953 0.873252 9.0948C0.892602 9.12584 0.916551 9.15401 0.944347 9.17841C1.02475 9.24877 1.09758 9.28068 1.25051 9.28068C1.39104 9.28065 1.59907 9.25374 1.94258 9.20498C2.16055 9.17376 2.37825 9.14078 2.59565 9.10605C2.65954 9.09574 2.7197 9.07015 2.7706 9.03164C2.8215 8.99312 2.8615 8.94293 2.88692 8.88566C2.91234 8.8284 2.92235 8.76591 2.91605 8.70395C2.90974 8.64199 2.88732 8.58256 2.85084 8.53111L2.37734 7.86373L3.05555 7.39771C3.10073 7.36666 3.13842 7.32661 3.16603 7.2803L4.21733 5.51667L4.64108 5.08033C5.07411 4.63435 5.19768 3.98185 4.95586 3.41794C4.8132 3.08532 4.56404 2.80841 4.25239 2.62179C4.59448 2.36319 4.95536 2.12841 5.33227 1.91923C6.73556 1.14067 8.26699 0.763382 9.78232 0.748947L9.09276 1.58016L6.53568 2.44159C6.48433 2.45887 6.43737 2.4864 6.39787 2.52235C6.35837 2.55831 6.32722 2.60188 6.30648 2.65022L5.59236 4.31376C5.56741 4.37188 5.55823 4.43515 5.5657 4.49761C5.57316 4.56007 5.59702 4.61969 5.63503 4.67087L6.67802 6.07479C6.52865 6.20575 6.38325 6.3965 6.20959 6.63333C6.13343 6.7372 6.06153 6.83528 6.01183 6.89028C5.96902 6.93751 5.92591 6.9845 5.88249 7.03122C5.65816 7.27373 5.42622 7.52455 5.26144 7.85958C4.89913 8.59653 4.97231 9.45309 5.45241 10.095C5.91663 10.7157 6.68196 11.0312 7.49881 10.9388C7.63188 10.9239 7.75596 10.8944 7.87603 10.8658C8.2071 10.7871 8.31198 10.7792 8.41818 10.8747C8.46985 10.9212 8.4746 10.93 8.47356 11.0877C8.47283 11.188 8.47202 11.3129 8.50801 11.4554C8.56567 11.6835 8.71469 11.8411 8.83441 11.9677C8.89392 12.0306 8.95547 12.0957 8.97444 12.1393C9.09488 12.4167 9.04244 12.5703 8.92751 12.9069C8.91743 12.9363 8.90744 12.9657 8.89755 12.9952C8.72296 13.5145 8.96633 14.0297 9.18104 14.4841C9.25078 14.6317 9.31663 14.771 9.35977 14.8942C9.70698 15.8842 9.96726 16.111 10.1761 16.2022C10.2856 16.25 10.3988 16.271 10.5132 16.271C11.0698 16.2709 11.6507 15.7743 11.9176 15.4594C12.0852 15.2617 12.1265 15.0637 12.1566 14.9191C12.1716 14.8471 12.1834 14.7904 12.206 14.7533C12.2405 14.6965 12.2812 14.6525 12.3326 14.5967C12.4362 14.4847 12.5651 14.3453 12.6485 14.0926C12.7119 13.9007 12.758 13.8537 12.9106 13.6975C12.9392 13.6684 12.9676 13.639 12.9958 13.6096C13.5102 13.0718 13.3777 12.6609 13.2374 12.2259C13.1194 11.8599 13.3259 11.6258 13.8251 11.1791C14.0415 10.9854 14.2653 10.7851 14.4382 10.5445C14.5139 10.4392 14.7442 10.1188 14.6017 9.80129C14.462 9.48994 14.107 9.43762 13.8218 9.39561C13.7091 9.37899 13.5389 9.3539 13.4847 9.31987C13.2458 9.16976 13.0996 8.85649 12.9583 8.55349C12.9301 8.49318 12.9023 8.43366 12.8742 8.37588C12.824 8.27279 12.7738 8.14806 12.7207 8.01603C12.5802 7.66661 12.421 7.27054 12.1499 6.99444C11.9063 6.74636 11.447 6.62687 11.0418 6.52141C10.9055 6.48597 10.7769 6.45249 10.692 6.4224C10.621 6.39718 10.5439 6.3926 10.4702 6.40922C10.273 6.45364 10.1499 6.50259 10.0586 6.57295C10.0344 6.59154 9.96294 6.65259 9.92108 6.75071C9.7797 6.6855 9.58529 6.561 9.46565 6.48437L9.4582 6.47958C9.49852 6.32454 9.46202 6.20011 9.42379 6.12241C9.20807 5.68392 8.49198 5.71825 8.35072 5.72979C8.27047 5.73624 8.16894 5.73969 8.06155 5.74333C7.89286 5.74908 7.70642 5.75554 7.52194 5.77543L7.53144 5.74997C7.67147 5.37506 8.04405 5.12316 8.45858 5.12316H8.67812C8.89133 5.12316 9.06426 4.95698 9.06426 4.7521C9.06426 4.54722 8.89133 4.38104 8.67812 4.38104H8.45858C7.84316 4.38104 7.27961 4.69228 6.96376 5.18216L6.38777 4.40683L6.95445 3.08688L9.45314 2.24509C9.52168 2.22199 9.58206 2.1808 9.62735 2.12623L10.7381 0.787355C13.5763 1.04679 16.2479 2.57592 17.7788 5.12394C18.1789 5.78997 18.4849 6.50425 18.6887 7.24794L18.525 7.38821C18.4192 7.47918 18.334 7.59018 18.2749 7.71424C18.2157 7.83831 18.1839 7.97277 18.1814 8.10921C18.1813 8.11219 18.1812 8.11517 18.1811 8.11815L17.9144 7.41337C17.8749 7.30855 17.816 7.21145 17.7405 7.12674L17.2648 6.59151C17.1739 6.48909 17.0609 6.40686 16.9337 6.35051C16.8065 6.29415 16.668 6.26501 16.5279 6.26509H15.9456C15.8444 6.26499 15.745 6.29135 15.6581 6.34135C15.5712 6.39135 15.5002 6.46311 15.4525 6.54894C15.4046 6.63469 15.3819 6.73133 15.3868 6.82852C15.3917 6.9257 15.424 7.01978 15.4803 7.10069L15.5392 7.1857C15.1629 7.49664 14.7277 7.74546 14.2643 7.91327L13.466 6.444V6.11621C13.4661 6.06603 13.4555 6.01637 13.4349 5.97024C13.4144 5.92411 13.3843 5.88247 13.3465 5.84783L12.6277 5.18843C12.5881 5.15207 12.5408 5.12423 12.4891 5.10675L11.842 4.88825C11.6407 4.82019 11.4204 4.92199 11.3497 5.11529C11.279 5.30867 11.3848 5.52045 11.586 5.5884L12.1546 5.78044L12.6938 6.275V6.53506C12.6938 6.59485 12.7088 6.65378 12.7376 6.70681L13.7369 8.54621C13.7804 8.62621 13.8526 8.68825 13.9402 8.72072C14.0278 8.7532 14.1248 8.75387 14.2128 8.72263L14.5038 8.61954C15.1798 8.37996 15.8064 7.99458 16.3159 7.50511C16.379 7.44445 16.4183 7.36465 16.4271 7.27929C16.4359 7.19392 16.4136 7.10826 16.3641 7.03689L16.3435 7.00724H16.5279C16.5564 7.00723 16.5845 7.01315 16.6104 7.0246C16.6362 7.03605 16.6592 7.05275 16.6776 7.07356L17.1534 7.60879C17.1687 7.62605 17.1805 7.64556 17.1887 7.66698L17.7137 9.05424C17.7359 9.11287 17.7731 9.16516 17.8219 9.2063C17.8707 9.24743 17.9295 9.27608 17.9929 9.28959C18.0563 9.3031 18.1222 9.30103 18.1845 9.28358C18.2469 9.26614 18.3036 9.23387 18.3495 9.18977L18.5994 8.94963C18.7577 8.79752 18.8666 8.60507 18.9187 8.39173C19.3052 11.3681 18.0907 14.447 15.5236 16.3831C15.3558 16.5097 15.3265 16.7429 15.4583 16.9041C15.5899 17.0654 15.8326 17.0935 16.0004 16.9669C17.8538 15.5691 19.127 13.5698 19.5856 11.3374C20.0485 9.08337 19.6443 6.74492 18.4475 4.75295ZM1.82592 10.4926L3.41825 11.656C3.46529 11.6904 3.51992 11.7139 3.57793 11.7248L4.53766 11.905C4.66016 11.928 4.76234 11.9976 4.82548 12.1011C4.88862 12.2045 4.90191 12.3242 4.86306 12.4381C4.78311 12.6707 4.78274 12.9218 4.86202 13.1546L4.98436 13.5164C5.05746 13.7326 4.93381 13.9656 4.70886 14.0359L4.32511 14.1557C4.25939 14.1762 4.20061 14.2133 4.15489 14.2631C4.10918 14.3129 4.07821 14.3736 4.06521 14.4388L3.75635 15.9881C3.07733 15.3909 2.48115 14.6851 1.99723 13.8796C1.40683 12.897 1.03796 11.849 0.875376 10.7893L1.82592 10.4926ZM4.07645 4.57401L3.62219 5.0417C3.60191 5.0626 3.58419 5.08567 3.5694 5.11047L2.53784 6.8411L1.62101 7.47108C1.53891 7.52748 1.48305 7.61253 1.4654 7.70801C1.44774 7.8035 1.46969 7.90183 1.52655 7.98196L1.86944 8.46528C1.67179 8.49356 1.49442 8.51686 1.37648 8.52922C1.35302 8.50771 1.32939 8.48639 1.30558 8.46524C1.21378 8.3833 1.08623 8.27387 0.896075 8.11396C1.20969 6.24873 2.14502 4.49152 3.61605 3.15019C3.89773 3.23543 4.12889 3.43735 4.24181 3.70071C4.36887 3.99692 4.30391 4.33974 4.07645 4.57401ZM7.22497 6.60179C7.3972 6.50864 7.79698 6.49502 8.08885 6.48508C8.20582 6.48111 8.31635 6.47732 8.41506 6.46938C8.46715 6.46519 8.525 6.46596 8.57957 6.47005C8.5453 6.55456 8.54445 6.64822 8.57718 6.73329C8.60992 6.81837 8.67397 6.88896 8.75721 6.93173C8.82966 6.96898 8.93049 7.03359 9.03723 7.10198C9.33903 7.29533 9.68114 7.51446 10.0025 7.53412C10.2948 7.55235 10.4574 7.39229 10.5271 7.32412C10.5326 7.3187 10.5379 7.31329 10.5434 7.30835C10.586 7.27482 10.6211 7.23348 10.6468 7.18674C10.7085 7.2037 10.7734 7.22059 10.8399 7.23792C11.0686 7.2974 11.4942 7.40814 11.5882 7.50388C11.7552 7.67403 11.8854 7.99788 12.0003 8.28359C12.0583 8.42798 12.1132 8.56425 12.1747 8.69061C12.2011 8.74482 12.2271 8.80067 12.2535 8.85723C12.4317 9.23916 12.6337 9.67208 13.0621 9.9412C13.2564 10.0632 13.4946 10.0983 13.7047 10.1293C13.7302 10.1331 13.7593 10.1374 13.7889 10.142C13.6641 10.3092 13.4865 10.4682 13.2989 10.6361C12.8208 11.0639 12.2259 11.5963 12.4999 12.4457C12.6292 12.8468 12.6352 12.8901 12.4273 13.1075C12.3989 13.1372 12.3725 13.1642 12.3477 13.1895C12.1696 13.3717 12.029 13.5156 11.9125 13.8682C11.8787 13.9705 11.8348 14.018 11.7552 14.1041C11.6916 14.1729 11.6123 14.2587 11.5392 14.379C11.4516 14.523 11.4227 14.6617 11.3994 14.7732C11.3765 14.8828 11.3636 14.9379 11.3188 14.9907C11.2168 15.111 11.0266 15.2857 10.8313 15.405C10.6498 15.5157 10.5438 15.5309 10.5077 15.5288C10.4665 15.4863 10.3172 15.3004 10.0917 14.6572C10.0361 14.4985 9.95892 14.3353 9.88431 14.1774C9.71984 13.8293 9.5498 13.4693 9.63252 13.2233C9.64229 13.1943 9.65195 13.1659 9.66145 13.1382C9.7936 12.7512 9.91833 12.3857 9.68724 11.8535C9.61688 11.6915 9.50485 11.573 9.40611 11.4685C9.34219 11.401 9.26978 11.3244 9.25862 11.2803C9.24503 11.2265 9.24546 11.1644 9.24596 11.0926C9.24727 10.8987 9.24928 10.6057 8.94617 10.3329C8.51882 9.94854 8.0205 10.067 7.6907 10.1453C7.58941 10.1694 7.49371 10.1922 7.40891 10.2017C6.8664 10.2628 6.38206 10.0661 6.07968 9.6618C5.76336 9.23886 5.71744 8.66971 5.95988 8.17653C6.07724 7.93788 6.25454 7.74613 6.45983 7.52422C6.50467 7.47571 6.54993 7.4268 6.59519 7.37671C6.67049 7.29328 6.75337 7.18032 6.84099 7.06072C6.94561 6.91803 7.14039 6.65233 7.22497 6.60179Z" fill="white"/>
<path d="M15.835 12.7757L15.6492 12.1028C15.6294 12.031 15.5876 11.9665 15.5292 11.9178C15.4708 11.8691 15.3986 11.8383 15.3218 11.8295C15.245 11.8208 15.1673 11.8344 15.0986 11.8685C15.0299 11.9026 14.9735 11.9558 14.9365 12.021C14.8942 12.096 14.8561 12.1754 14.8193 12.2522C14.7573 12.3814 14.6932 12.515 14.6265 12.5887C14.589 12.6301 14.4928 12.6748 14.3998 12.7179C14.1775 12.821 13.873 12.9622 13.7567 13.3185C13.6844 13.5395 13.7114 13.7144 13.7311 13.842C13.7481 13.9527 13.7521 13.9911 13.7212 14.0607L13.7173 14.0694C13.5944 14.3465 13.3657 14.8625 13.6864 15.3012C13.9152 15.6143 14.1558 15.6948 14.3428 15.6948C14.3772 15.6948 14.4117 15.6922 14.4457 15.6868C14.8396 15.6249 15.1357 15.2312 15.3777 14.4476L15.8319 12.9765C15.8521 12.9111 15.8532 12.8417 15.835 12.7757ZM14.6374 14.2365C14.514 14.636 14.4049 14.8225 14.3419 14.9052C14.3346 14.8963 14.3268 14.8862 14.3184 14.8746C14.2446 14.7736 14.3548 14.5249 14.4278 14.3602L14.4317 14.3515C14.5494 14.086 14.518 13.8822 14.4951 13.7333C14.4804 13.6379 14.4751 13.597 14.4935 13.5407C14.5087 13.4944 14.5991 13.4495 14.7355 13.3863C14.7959 13.3582 14.8624 13.3274 14.9296 13.29L14.6374 14.2365ZM10.4288 4.41058L10.4027 4.40182C10.2016 4.33413 9.98114 4.43577 9.91054 4.62915C9.83995 4.82257 9.94588 5.03428 10.1471 5.10211L10.1731 5.11087C10.2142 5.12476 10.2574 5.13186 10.301 5.13187C10.4604 5.13187 10.6096 5.03624 10.6654 4.88354C10.736 4.69012 10.63 4.47838 10.4288 4.41058Z" fill="white"/>
</svg>
