<svg width="20" height="19" viewBox="0 0 20 19" fill="none" xmlns="http://www.w3.org/2000/svg">
<path d="M15.5078 19.0008H4.21124C2.93055 19.0008 1.88867 17.9588 1.88867 16.6782V9.15893C1.88867 8.88996 2.10672 8.67188 2.37573 8.67188C2.6447 8.67188 2.86279 8.88996 2.86279 9.15893V16.6782C2.86279 17.4218 3.46772 18.0266 4.21124 18.0266H15.5078C16.2514 18.0266 16.8563 17.4218 16.8563 16.6782V9.15893C16.8563 8.88996 17.0744 8.67188 17.3433 8.67188C17.6123 8.67188 17.8304 8.88996 17.8304 9.15893V16.6782C17.8304 17.9588 16.7885 19.0008 15.5078 19.0008Z" fill="white"/>
<path d="M12.4345 16.8576C12.1655 16.8576 11.9474 16.6395 11.9474 16.3705V11.8539C11.9473 11.7918 11.9226 11.7322 11.8787 11.6883C11.8348 11.6444 11.7753 11.6197 11.7132 11.6197H7.97045C7.90835 11.6197 7.84882 11.6444 7.80491 11.6883C7.761 11.7322 7.7363 11.7918 7.73623 11.8539V16.3705C7.73623 16.6395 7.51819 16.8576 7.24917 16.8576C6.98016 16.8576 6.76211 16.6395 6.76211 16.3705V11.8539C6.76211 11.1876 7.30415 10.6455 7.97045 10.6455H11.7132C12.3795 10.6455 12.9215 11.1876 12.9215 11.8539V16.3705C12.9215 16.6395 12.7035 16.8576 12.4345 16.8576ZM0.487393 8.47625C0.414305 8.47636 0.342133 8.45999 0.276245 8.42836C0.210356 8.39672 0.152447 8.35065 0.106825 8.29354C-0.0612692 8.08352 -0.0272919 7.77703 0.182728 7.60893L9.55581 0.106825C9.76583 -0.0612691 10.0723 -0.0272919 10.2404 0.182728C10.4085 0.392748 10.3745 0.699244 10.1645 0.867338L0.791435 8.36941C0.705238 8.43865 0.597959 8.47635 0.487393 8.47625Z" fill="white"/>
<path d="M19.2329 8.47629C19.1261 8.47629 19.0187 8.44138 18.9289 8.36945L9.55577 0.867338C9.34575 0.699283 9.31178 0.392748 9.47987 0.182728C9.64797 -0.0272919 9.95458 -0.0612691 10.1644 0.106825L19.5375 7.60893C19.7476 7.77699 19.7816 8.08352 19.6134 8.29354C19.5678 8.35065 19.5099 8.39674 19.444 8.42838C19.3782 8.46002 19.306 8.4764 19.2329 8.47629Z" fill="white"/>
</svg>
