<svg width="23" height="12" viewBox="0 0 23 12" fill="none" xmlns="http://www.w3.org/2000/svg">
<path d="M19.0581 11.9901C18.6827 11.9904 18.3158 11.8793 18.0035 11.671C17.6913 11.4627 17.4479 11.1664 17.3041 10.8198C17.1603 10.4731 17.1225 10.0915 17.1956 9.72339C17.2686 9.35524 17.4492 9.01703 17.7145 8.75154C17.9798 8.48604 18.3179 8.3052 18.686 8.23187C19.0541 8.15855 19.4357 8.19604 19.7825 8.33961C20.1292 8.48318 20.4256 8.72637 20.6342 9.03843C20.8427 9.35048 20.9541 9.71737 20.9541 10.0927C20.9538 10.5956 20.754 11.0779 20.3986 11.4336C20.0431 11.7893 19.561 11.9895 19.0581 11.9901ZM19.0581 8.88745C18.8196 8.88718 18.5865 8.95763 18.3881 9.0899C18.1897 9.22217 18.035 9.41031 17.9436 9.63051C17.8521 9.85072 17.8281 10.0931 17.8744 10.327C17.9208 10.5609 18.0354 10.7758 18.2039 10.9445C18.3724 11.1131 18.5872 11.2281 18.821 11.2747C19.0549 11.3213 19.2973 11.2975 19.5176 11.2063C19.7379 11.1152 19.9262 10.9607 20.0587 10.7624C20.1912 10.5642 20.2619 10.3311 20.2619 10.0927C20.2618 9.77333 20.135 9.46705 19.9093 9.24109C19.6836 9.01512 19.3774 8.88794 19.0581 8.88745ZM9.05939 11.9901C8.68405 11.9905 8.31702 11.8795 8.00476 11.6712C7.69249 11.463 7.44901 11.1668 7.30512 10.8201C7.16123 10.4734 7.12339 10.0919 7.19639 9.72367C7.26939 9.35549 7.44996 9.01724 7.71524 8.7517C7.98052 8.48616 8.3186 8.30527 8.6867 8.23191C9.05481 8.15855 9.43641 8.19601 9.78322 8.33957C10.13 8.48312 10.4265 8.72631 10.635 9.03838C10.8436 9.35044 10.9549 9.71735 10.9549 10.0927C10.9546 10.5955 10.7548 11.0776 10.3995 11.4333C10.0441 11.789 9.56218 11.9892 9.05939 11.9901ZM9.05939 8.88745C8.82094 8.88709 8.58773 8.95746 8.38929 9.08968C8.19084 9.22189 8.03608 9.41 7.94457 9.63019C7.85307 9.85039 7.82894 10.0928 7.87523 10.3267C7.92153 10.5606 8.03617 10.7755 8.20465 10.9443C8.37314 11.113 8.58789 11.228 8.82173 11.2747C9.05558 11.3213 9.29801 11.2975 9.51835 11.2064C9.73869 11.1152 9.92703 10.9607 10.0595 10.7625C10.1921 10.5643 10.2628 10.3312 10.2628 10.0927C10.2626 9.77344 10.1357 9.46731 9.91017 9.24138C9.68459 9.01546 9.37865 8.88819 9.05939 8.88745Z" fill="white"/>
<path d="M21.5548 10.4381H20.6084C20.5166 10.4381 20.4286 10.4016 20.3637 10.3367C20.2988 10.2718 20.2624 10.1838 20.2624 10.092C20.2624 10.0002 20.2988 9.91221 20.3637 9.84731C20.4286 9.78241 20.5166 9.74595 20.6084 9.74595H21.457V7.91086C21.4568 7.66275 21.3932 7.4188 21.2724 7.2021L19.399 3.84337C19.383 3.81471 19.3597 3.79083 19.3314 3.77421C19.3031 3.75758 19.2708 3.7488 19.238 3.74878H16.6849V9.74734H17.509C17.6008 9.74734 17.6888 9.7838 17.7537 9.8487C17.8186 9.9136 17.8551 10.0016 17.8551 10.0934C17.8551 10.1852 17.8186 10.2732 17.7537 10.3381C17.6888 10.403 17.6008 10.4395 17.509 10.4395H16.3388C16.2471 10.4395 16.159 10.403 16.0941 10.3381C16.0292 10.2732 15.9928 10.1852 15.9928 10.0934V3.40271C15.9928 3.31093 16.0292 3.2229 16.0941 3.158C16.159 3.0931 16.2471 3.05664 16.3388 3.05664H19.238C19.3941 3.05656 19.5474 3.09818 19.6821 3.17719C19.8168 3.2562 19.9279 3.36974 20.004 3.50607L21.8769 6.86526C22.055 7.185 22.1485 7.54488 22.1487 7.91086V9.84424C22.1484 10.0017 22.0858 10.1526 21.9745 10.2639C21.8632 10.3752 21.7122 10.4378 21.5548 10.4381ZM7.5099 10.4381H4.19177C4.09999 10.4381 4.01197 10.4016 3.94706 10.3367C3.88216 10.2718 3.8457 10.1838 3.8457 10.092V7.43051C3.8457 7.33873 3.88216 7.2507 3.94706 7.1858C4.01197 7.1209 4.09999 7.08444 4.19177 7.08444C4.28356 7.08444 4.37158 7.1209 4.43648 7.1858C4.50138 7.2507 4.53784 7.33873 4.53784 7.43051V9.74595H7.5099C7.60168 9.74595 7.6897 9.78241 7.75461 9.84731C7.81951 9.91221 7.85597 10.0002 7.85597 10.092C7.85597 10.1838 7.81951 10.2718 7.75461 10.3367C7.6897 10.4016 7.60168 10.4381 7.5099 10.4381ZM4.19177 6.20265C4.09999 6.20265 4.01197 6.16619 3.94706 6.10129C3.88216 6.03639 3.8457 5.94836 3.8457 5.85658V3.53283C3.8457 3.44105 3.88216 3.35303 3.94706 3.28812C4.01197 3.22322 4.09999 3.18676 4.19177 3.18676C4.28356 3.18676 4.37158 3.22322 4.43648 3.28812C4.50138 3.35303 4.53784 3.44105 4.53784 3.53283V5.85797C4.53748 5.94951 4.50086 6.03718 4.43599 6.10178C4.37113 6.16638 4.28332 6.20265 4.19177 6.20265Z" fill="white"/>
<path d="M16.3377 10.4379H10.6081C10.5163 10.4379 10.4283 10.4015 10.3634 10.3366C10.2985 10.2717 10.262 10.1837 10.262 10.0919C10.262 10.0001 10.2985 9.91207 10.3634 9.84717C10.4283 9.78227 10.5163 9.74581 10.6081 9.74581H15.9916V0.692141H4.53665V2.11749C4.53665 2.20927 4.50019 2.2973 4.43529 2.3622C4.37039 2.4271 4.28236 2.46356 4.19058 2.46356C4.09879 2.46356 4.01077 2.4271 3.94587 2.3622C3.88097 2.2973 3.84451 2.20927 3.84451 2.11749V0.628464C3.84475 0.46178 3.91111 0.302 4.02901 0.18418C4.14692 0.0663593 4.30675 0.000122023 4.47343 0H16.0553C16.2219 0.000244109 16.3816 0.0665354 16.4994 0.184342C16.6172 0.302149 16.6835 0.46186 16.6837 0.628464V10.0919C16.6837 10.1837 16.6473 10.2717 16.5824 10.3366C16.5175 10.4015 16.4294 10.4379 16.3377 10.4379ZM5.55871 7.77643H1.16638C1.0746 7.77643 0.986575 7.73997 0.921674 7.67507C0.856773 7.61017 0.820312 7.52215 0.820312 7.43036C0.820312 7.33858 0.856773 7.25056 0.921674 7.18566C0.986575 7.12075 1.0746 7.08429 1.16638 7.08429H5.55871C5.65049 7.08429 5.73852 7.12075 5.80342 7.18566C5.86832 7.25056 5.90478 7.33858 5.90478 7.43036C5.90478 7.52215 5.86832 7.61017 5.80342 7.67507C5.73852 7.73997 5.65049 7.77643 5.55871 7.77643Z" fill="white"/>
<path d="M9.0592 6.20257H2.93006C2.83828 6.20257 2.75026 6.16611 2.68535 6.10121C2.62045 6.03631 2.58399 5.94828 2.58399 5.8565C2.58399 5.76472 2.62045 5.67669 2.68535 5.61179C2.75026 5.54689 2.83828 5.51043 2.93006 5.51043H9.0592C9.15099 5.51043 9.23901 5.54689 9.30391 5.61179C9.36881 5.67669 9.40527 5.76472 9.40527 5.8565C9.40527 5.94828 9.36881 6.03631 9.30391 6.10121C9.23901 6.16611 9.15099 6.20257 9.0592 6.20257ZM2.73949 4.37532H0.346071C0.254287 4.37532 0.166263 4.33886 0.101362 4.27396C0.0364609 4.20906 0 4.12103 0 4.02925C0 3.93746 0.0364609 3.84944 0.101362 3.78454C0.166263 3.71964 0.254287 3.68318 0.346071 3.68318H2.73949C2.83128 3.68318 2.9193 3.71964 2.9842 3.78454C3.0491 3.84944 3.08556 3.93746 3.08556 4.02925C3.08556 4.12103 3.0491 4.20906 2.9842 4.27396C2.9193 4.33886 2.83128 4.37532 2.73949 4.37532ZM6.57719 2.46362H2.35236C2.26057 2.46362 2.17255 2.42716 2.10765 2.36226C2.04275 2.29736 2.00629 2.20934 2.00629 2.11755C2.00629 2.02577 2.04275 1.93775 2.10765 1.87285C2.17255 1.80795 2.26057 1.77148 2.35236 1.77148H6.57719C6.66897 1.77148 6.75699 1.80795 6.82189 1.87285C6.8868 1.93775 6.92326 2.02577 6.92326 2.11755C6.92326 2.20934 6.8868 2.29736 6.82189 2.36226C6.75699 2.42716 6.66897 2.46362 6.57719 2.46362Z" fill="white"/>
</svg>
