<svg width="15" height="20" viewBox="0 0 15 20" fill="none" xmlns="http://www.w3.org/2000/svg">
<path d="M14.4468 3.31588L11.219 0.0877596C11.1623 0.0322572 11.0863 0.000816821 11.0069 0H1.15473C0.848589 0.000362192 0.555089 0.122137 0.338613 0.338613C0.122137 0.555089 0.000362192 0.848589 0 1.15473V19.6989C0.00223535 19.7794 0.03592 19.8558 0.093833 19.9118C0.151746 19.9677 0.229278 19.9988 0.30981 19.9982C0.384099 19.9984 0.455805 19.971 0.51099 19.9213L1.69361 18.8486L2.874 19.9211C2.93291 19.9716 3.00794 19.9993 3.08553 19.9993C3.16312 19.9993 3.23815 19.9716 3.29706 19.9211L4.47968 18.8485L5.66007 19.9209C5.71898 19.9714 5.79401 19.9992 5.8716 19.9992C5.94919 19.9992 6.02422 19.9714 6.08313 19.9209L7.26728 18.848L8.45007 19.9213C8.50898 19.9718 8.58401 19.9995 8.6616 19.9995C8.73919 19.9995 8.81422 19.9718 8.87313 19.9213L10.0535 18.8488L11.2361 19.9213C11.2949 19.972 11.37 20 11.4477 20C11.5253 20 11.6004 19.972 11.6592 19.9213L12.8396 18.8488L14.0222 19.9214C14.0659 19.9607 14.1199 19.9865 14.1779 19.9959C14.2358 20.0053 14.2953 19.9978 14.3491 19.9744C14.4029 19.951 14.4489 19.9125 14.4815 19.8637C14.5141 19.8149 14.532 19.7577 14.533 19.699V3.52749C14.5334 3.44832 14.5024 3.37223 14.4468 3.31588ZM13.5141 3.23034H11.3063V1.02352L13.5141 3.23034ZM13.042 18.2225C12.9868 18.1726 12.9151 18.1449 12.8407 18.1449C12.7663 18.1449 12.6946 18.1726 12.6394 18.2225L11.4481 19.3044L10.2552 18.2223C10.2001 18.1724 10.1283 18.1447 10.0539 18.1447C9.97955 18.1447 9.90781 18.1724 9.85268 18.2223L8.66134 19.3042L7.46846 18.2222C7.41333 18.1723 7.34163 18.1447 7.26728 18.1447C7.19294 18.1447 7.12124 18.1723 7.0661 18.2222L5.87322 19.3042L4.68188 18.2223C4.62675 18.1724 4.55501 18.1447 4.48062 18.1447C4.40622 18.1447 4.33448 18.1724 4.27935 18.2223L3.0863 19.3044L1.89564 18.2222C1.84051 18.1722 1.76877 18.1445 1.69438 18.1445C1.61998 18.1445 1.54824 18.1722 1.49311 18.2222L0.599263 19.0329V1.15473C0.599444 1.00733 0.658079 0.866021 0.762307 0.761793C0.866534 0.657565 1.00785 0.598931 1.15524 0.59875H10.7075V3.5292C10.7076 3.60859 10.7391 3.68471 10.7953 3.74084C10.8514 3.79698 10.9275 3.82853 11.0069 3.82858H13.9356V19.0327L13.042 18.2225Z" fill="white"/>
<path d="M2.33746 3.91125C2.5028 3.91125 2.63684 3.77722 2.63684 3.61187C2.63684 3.44653 2.5028 3.3125 2.33746 3.3125C2.17212 3.3125 2.03809 3.44653 2.03809 3.61187C2.03809 3.77722 2.17212 3.91125 2.33746 3.91125Z" fill="white"/>
<path d="M4.0401 3.91125C4.20544 3.91125 4.33947 3.77722 4.33947 3.61187C4.33947 3.44653 4.20544 3.3125 4.0401 3.3125C3.87476 3.3125 3.74072 3.44653 3.74072 3.61187C3.74072 3.77722 3.87476 3.91125 4.0401 3.91125Z" fill="white"/>
<path d="M5.74322 3.91125C5.90856 3.91125 6.0426 3.77722 6.0426 3.61187C6.0426 3.44653 5.90856 3.3125 5.74322 3.3125C5.57788 3.3125 5.44385 3.44653 5.44385 3.61187C5.44385 3.77722 5.57788 3.91125 5.74322 3.91125Z" fill="white"/>
<path d="M7.44586 3.91125C7.6112 3.91125 7.74523 3.77722 7.74523 3.61187C7.74523 3.44653 7.6112 3.3125 7.44586 3.3125C7.28052 3.3125 7.14648 3.44653 7.14648 3.61187C7.14648 3.77722 7.28052 3.91125 7.44586 3.91125Z" fill="white"/>
<path d="M9.14898 3.91125C9.31432 3.91125 9.44836 3.77722 9.44836 3.61187C9.44836 3.44653 9.31432 3.3125 9.14898 3.3125C8.98364 3.3125 8.84961 3.44653 8.84961 3.61187C8.84961 3.77722 8.98364 3.91125 9.14898 3.91125Z" fill="white"/>
<path d="M12.1973 9.44262H2.33746C2.25806 9.44262 2.18191 9.47416 2.12577 9.53031C2.06963 9.58645 2.03809 9.6626 2.03809 9.742C2.03809 9.8214 2.06963 9.89754 2.12577 9.95369C2.18191 10.0098 2.25806 10.0414 2.33746 10.0414H12.1973C12.2767 10.0414 12.3529 10.0098 12.409 9.95369C12.4652 9.89754 12.4967 9.8214 12.4967 9.742C12.4967 9.6626 12.4652 9.58645 12.409 9.53031C12.3529 9.47416 12.2767 9.44262 12.1973 9.44262ZM7.14764 12.5063H2.33746C2.25806 12.5063 2.18191 12.5379 2.12577 12.594C2.06963 12.6502 2.03809 12.7263 2.03809 12.8057C2.03809 12.8851 2.06963 12.9613 2.12577 13.0174C2.18191 13.0735 2.25806 13.1051 2.33746 13.1051H7.14764C7.22704 13.1051 7.30319 13.0735 7.35934 13.0174C7.41548 12.9613 7.44702 12.8851 7.44702 12.8057C7.44702 12.7263 7.41548 12.6502 7.35934 12.594C7.30319 12.5379 7.22704 12.5063 7.14764 12.5063ZM7.14764 15.5701H2.33746C2.25806 15.5701 2.18191 15.6016 2.12577 15.6577C2.06963 15.7139 2.03809 15.79 2.03809 15.8694C2.03809 15.9488 2.06963 16.025 2.12577 16.0811C2.18191 16.1373 2.25806 16.1688 2.33746 16.1688H7.14764C7.22704 16.1688 7.30319 16.1373 7.35934 16.0811C7.41548 16.025 7.44702 15.9488 7.44702 15.8694C7.44702 15.79 7.41548 15.7139 7.35934 15.6577C7.30319 15.6016 7.22704 15.5701 7.14764 15.5701ZM12.1973 6.37891H2.33746C2.25806 6.37891 2.18191 6.41045 2.12577 6.46659C2.06963 6.52273 2.03809 6.59888 2.03809 6.67828C2.03809 6.75768 2.06963 6.83383 2.12577 6.88997C2.18191 6.94611 2.25806 6.97766 2.33746 6.97766H12.1973C12.2767 6.97766 12.3529 6.94611 12.409 6.88997C12.4652 6.83383 12.4967 6.75768 12.4967 6.67828C12.4967 6.59888 12.4652 6.52273 12.409 6.46659C12.3529 6.41045 12.2767 6.37891 12.1973 6.37891ZM11.849 13.1051C11.9284 13.1051 12.0046 13.0735 12.0607 13.0174C12.1169 12.9613 12.1484 12.8851 12.1484 12.8057C12.1484 12.7263 12.1169 12.6502 12.0607 12.594C12.0046 12.5379 11.9284 12.5063 11.849 12.5063H11.1353V11.9892C11.1353 11.9098 11.1038 11.8336 11.0476 11.7775C10.9915 11.7214 10.9153 11.6898 10.8359 11.6898C10.7565 11.6898 10.6804 11.7214 10.6243 11.7775C10.5681 11.8336 10.5366 11.9098 10.5366 11.9892V12.5063H9.82269C9.7433 12.5064 9.66718 12.5379 9.61105 12.5941C9.55491 12.6502 9.52336 12.7263 9.52331 12.8057V14.3375C9.52336 14.4169 9.55491 14.493 9.61105 14.5491C9.66718 14.6053 9.7433 14.6368 9.82269 14.6369H10.5366V15.5701H9.82269C9.74329 15.5701 9.66714 15.6016 9.611 15.6577C9.55485 15.7139 9.52331 15.79 9.52331 15.8694C9.52331 15.9488 9.55485 16.025 9.611 16.0811C9.66714 16.1373 9.74329 16.1688 9.82269 16.1688H10.5366V16.686C10.5366 16.7654 10.5681 16.8415 10.6243 16.8976C10.6804 16.9538 10.7565 16.9853 10.8359 16.9853C10.9153 16.9853 10.9915 16.9538 11.0476 16.8976C11.1038 16.8415 11.1353 16.7654 11.1353 16.686V16.1688H11.849C11.9284 16.1688 12.0046 16.1373 12.0607 16.0811C12.1169 16.025 12.1484 15.9488 12.1484 15.8694V14.3375C12.1484 14.2581 12.1169 14.1819 12.0607 14.1258C12.0046 14.0697 11.9284 14.0381 11.849 14.0381H11.1353V13.1051H11.849ZM11.5497 14.6365V15.5697H11.1353V14.6365H11.5497ZM10.5366 14.0378H10.1221V13.1051H10.5366V14.0378Z" fill="white"/>
</svg>
