<svg width="15" height="20" viewBox="0 0 15 20" fill="none" xmlns="http://www.w3.org/2000/svg">
<path d="M14.4468 3.31588L11.219 0.0877596C11.1623 0.0322572 11.0863 0.000816821 11.0069 0H1.15473C0.848589 0.000362192 0.555089 0.122137 0.338613 0.338613C0.122137 0.555089 0.000362192 0.848589 0 1.15473V19.6989C0.00223535 19.7794 0.03592 19.8558 0.093833 19.9118C0.151746 19.9677 0.229278 19.9988 0.30981 19.9982C0.384099 19.9984 0.455805 19.971 0.51099 19.9213L1.69361 18.8486L2.874 19.9211C2.93291 19.9716 3.00794 19.9993 3.08553 19.9993C3.16312 19.9993 3.23815 19.9716 3.29706 19.9211L4.47968 18.8485L5.66007 19.9209C5.71898 19.9714 5.79401 19.9992 5.8716 19.9992C5.94919 19.9992 6.02422 19.9714 6.08313 19.9209L7.26728 18.848L8.45007 19.9213C8.50898 19.9718 8.58401 19.9995 8.6616 19.9995C8.73919 19.9995 8.81422 19.9718 8.87313 19.9213L10.0535 18.8488L11.2361 19.9213C11.2949 19.972 11.37 20 11.4477 20C11.5253 20 11.6004 19.972 11.6592 19.9213L12.8396 18.8488L14.0222 19.9214C14.0659 19.9607 14.1199 19.9865 14.1779 19.9959C14.2358 20.0053 14.2953 19.9978 14.3491 19.9744C14.4029 19.951 14.4489 19.9125 14.4815 19.8637C14.5141 19.8149 14.532 19.7577 14.533 19.699V3.52749C14.5334 3.44832 14.5024 3.37223 14.4468 3.31588ZM13.5141 3.23034H11.3063V1.02352L13.5141 3.23034ZM13.042 18.2225C12.9868 18.1726 12.9151 18.1449 12.8407 18.1449C12.7663 18.1449 12.6946 18.1726 12.6394 18.2225L11.4481 19.3044L10.2552 18.2223C10.2001 18.1724 10.1283 18.1447 10.0539 18.1447C9.97955 18.1447 9.90781 18.1724 9.85268 18.2223L8.66134 19.3042L7.46846 18.2222C7.41333 18.1723 7.34163 18.1447 7.26728 18.1447C7.19294 18.1447 7.12124 18.1723 7.0661 18.2222L5.87322 19.3042L4.68188 18.2223C4.62675 18.1724 4.55501 18.1447 4.48062 18.1447C4.40622 18.1447 4.33448 18.1724 4.27935 18.2223L3.0863 19.3044L1.89564 18.2222C1.84051 18.1722 1.76877 18.1445 1.69438 18.1445C1.61998 18.1445 1.54824 18.1722 1.49311 18.2222L0.599263 19.0329V1.15473C0.599444 1.00733 0.658079 0.866021 0.762307 0.761793C0.866534 0.657565 1.00785 0.598931 1.15524 0.59875H10.7075V3.5292C10.7076 3.60859 10.7391 3.68471 10.7953 3.74084C10.8514 3.79698 10.9275 3.82853 11.0069 3.82858H13.9356V19.0327L13.042 18.2225Z" fill="white"/>
<path d="M2.33648 3.9132C2.50182 3.9132 2.63586 3.77917 2.63586 3.61383C2.63586 3.44849 2.50182 3.31445 2.33648 3.31445C2.17114 3.31445 2.03711 3.44849 2.03711 3.61383C2.03711 3.77917 2.17114 3.9132 2.33648 3.9132Z" fill="white"/>
<path d="M4.03961 3.9132C4.20495 3.9132 4.33898 3.77917 4.33898 3.61383C4.33898 3.44849 4.20495 3.31445 4.03961 3.31445C3.87427 3.31445 3.74023 3.44849 3.74023 3.61383C3.74023 3.77917 3.87427 3.9132 4.03961 3.9132Z" fill="white"/>
<path d="M5.74273 3.9132C5.90807 3.9132 6.04211 3.77917 6.04211 3.61383C6.04211 3.44849 5.90807 3.31445 5.74273 3.31445C5.57739 3.31445 5.44336 3.44849 5.44336 3.61383C5.44336 3.77917 5.57739 3.9132 5.74273 3.9132Z" fill="white"/>
<path d="M7.44586 3.9132C7.6112 3.9132 7.74523 3.77917 7.74523 3.61383C7.74523 3.44849 7.6112 3.31445 7.44586 3.31445C7.28052 3.31445 7.14648 3.44849 7.14648 3.61383C7.14648 3.77917 7.28052 3.9132 7.44586 3.9132Z" fill="white"/>
<path d="M9.14898 3.9132C9.31432 3.9132 9.44836 3.77917 9.44836 3.61383C9.44836 3.44849 9.31432 3.31445 9.14898 3.31445C8.98364 3.31445 8.84961 3.44849 8.84961 3.61383C8.84961 3.77917 8.98364 3.9132 9.14898 3.9132Z" fill="white"/>
<path d="M12.1964 9.44067H2.33648C2.25709 9.44067 2.18094 9.47221 2.12479 9.52835C2.06865 9.5845 2.03711 9.66065 2.03711 9.74004C2.03711 9.81944 2.06865 9.89559 2.12479 9.95173C2.18094 10.0079 2.25709 10.0394 2.33648 10.0394H12.1964C12.2758 10.0394 12.3519 10.0079 12.408 9.95173C12.4642 9.89559 12.4957 9.81944 12.4957 9.74004C12.4957 9.66065 12.4642 9.5845 12.408 9.52835C12.3519 9.47221 12.2758 9.44067 12.1964 9.44067ZM7.14667 12.5044H2.33648C2.25709 12.5044 2.18094 12.5359 2.12479 12.5921C2.06865 12.6482 2.03711 12.7244 2.03711 12.8038C2.03711 12.8832 2.06865 12.9593 2.12479 13.0155C2.18094 13.0716 2.25709 13.1031 2.33648 13.1031H7.14667C7.22607 13.1031 7.30222 13.0716 7.35836 13.0155C7.4145 12.9593 7.44604 12.8832 7.44604 12.8038C7.44604 12.7244 7.4145 12.6482 7.35836 12.5921C7.30222 12.5359 7.22607 12.5044 7.14667 12.5044ZM7.14667 15.5681H2.33648C2.25709 15.5681 2.18094 15.5996 2.12479 15.6558C2.06865 15.7119 2.03711 15.7881 2.03711 15.8675C2.03711 15.9469 2.06865 16.023 2.12479 16.0792C2.18094 16.1353 2.25709 16.1669 2.33648 16.1669H7.14667C7.22607 16.1669 7.30222 16.1353 7.35836 16.0792C7.4145 16.023 7.44604 15.9469 7.44604 15.8675C7.44604 15.7881 7.4145 15.7119 7.35836 15.6558C7.30222 15.5996 7.22607 15.5681 7.14667 15.5681ZM12.1964 6.37695H2.33648C2.25709 6.37695 2.18094 6.40849 2.12479 6.46464C2.06865 6.52078 2.03711 6.59693 2.03711 6.67633C2.03711 6.75573 2.06865 6.83187 2.12479 6.88802C2.18094 6.94416 2.25709 6.9757 2.33648 6.9757H12.1964C12.2758 6.9757 12.3519 6.94416 12.408 6.88802C12.4642 6.83187 12.4957 6.75573 12.4957 6.67633C12.4957 6.59693 12.4642 6.52078 12.408 6.46464C12.3519 6.40849 12.2758 6.37695 12.1964 6.37695ZM11.8481 13.1031C11.9275 13.1031 12.0036 13.0716 12.0597 13.0155C12.1159 12.9593 12.1474 12.8832 12.1474 12.8038C12.1474 12.7244 12.1159 12.6482 12.0597 12.5921C12.0036 12.5359 11.9275 12.5044 11.8481 12.5044H11.1343V11.9872C11.1343 11.9078 11.1028 11.8317 11.0467 11.7755C10.9905 11.7194 10.9144 11.6879 10.835 11.6879C10.7556 11.6879 10.6794 11.7194 10.6233 11.7755C10.5671 11.8317 10.5356 11.9078 10.5356 11.9872V12.5044H9.82171C9.74233 12.5044 9.6662 12.536 9.61007 12.5921C9.55394 12.6483 9.52238 12.7244 9.52234 12.8038V14.3355C9.52238 14.4149 9.55394 14.491 9.61007 14.5472C9.6662 14.6033 9.74233 14.6349 9.82171 14.6349H10.5356V15.5681H9.82171C9.74231 15.5681 9.66616 15.5996 9.61002 15.6558C9.55388 15.7119 9.52234 15.7881 9.52234 15.8675C9.52234 15.9469 9.55388 16.023 9.61002 16.0792C9.66616 16.1353 9.74231 16.1669 9.82171 16.1669H10.5356V16.684C10.5356 16.7634 10.5671 16.8395 10.6233 16.8957C10.6794 16.9518 10.7556 16.9834 10.835 16.9834C10.9144 16.9834 10.9905 16.9518 11.0467 16.8957C11.1028 16.8395 11.1343 16.7634 11.1343 16.684V16.1669H11.8481C11.9275 16.1669 12.0036 16.1353 12.0597 16.0792C12.1159 16.023 12.1474 15.9469 12.1474 15.8675V14.3355C12.1474 14.2561 12.1159 14.18 12.0597 14.1238C12.0036 14.0677 11.9275 14.0362 11.8481 14.0362H11.1343V13.1031H11.8481ZM11.5487 14.6346V15.5678H11.1343V14.6346H11.5487ZM10.5356 14.0358H10.1211V13.1031H10.5356V14.0358Z" fill="white"/>
</svg>
