<svg width="17" height="20" viewBox="0 0 17 20" fill="none" xmlns="http://www.w3.org/2000/svg">
<path d="M6.70147 0C5.07647 0 3.75419 1.32454 3.75419 2.95091V3.74454H2.96238C2.16556 3.74454 1.79965 4.30045 1.68192 4.96273L0.0214683 15.7804C-0.133077 16.6604 0.572832 17.1359 1.30192 17.1359H5.5401C5.66066 17.1359 5.77627 17.088 5.86152 17.0028C5.94676 16.9175 5.99465 16.8019 5.99465 16.6814C5.99465 16.5608 5.94676 16.4452 5.86152 16.3599C5.77627 16.2747 5.66066 16.2268 5.5401 16.2268H1.30147C1.0342 16.2268 0.892377 16.0736 0.91965 15.9186L2.58147 5.10045C2.62829 4.81363 2.79556 4.65363 2.96238 4.65363H3.75419V6.69545C3.75419 6.816 3.80208 6.93162 3.88733 7.01686C3.97257 7.10211 4.08819 7.15 4.20874 7.15C4.32929 7.15 4.44491 7.10211 4.53015 7.01686C4.6154 6.93162 4.66329 6.816 4.66329 6.69545V4.65363H8.73919V6.69545C8.73919 6.816 8.78708 6.93162 8.87233 7.01686C8.95757 7.10211 9.07319 7.15 9.19374 7.15C9.31429 7.15 9.42991 7.10211 9.51515 7.01686C9.6004 6.93162 9.64828 6.816 9.64828 6.69545V4.65363H10.4401C10.7256 4.65773 10.7828 4.87818 10.8219 5.10045L11.4442 9.15409C11.4533 9.21309 11.4739 9.26973 11.5049 9.32076C11.5359 9.37179 11.5767 9.41621 11.6248 9.4515C11.673 9.48679 11.7276 9.51224 11.7856 9.52641C11.8436 9.54058 11.9038 9.54319 11.9628 9.53409C12.0218 9.52498 12.0785 9.50435 12.1295 9.47336C12.1805 9.44237 12.225 9.40163 12.2602 9.35347C12.2955 9.30531 12.321 9.25067 12.3352 9.19267C12.3493 9.13468 12.3519 9.07446 12.3428 9.01545L11.7201 4.96273C11.5737 4.20454 11.1078 3.74454 10.4401 3.74454H9.64828V2.95091C9.64828 1.32454 8.32692 0 6.70147 0ZM6.70147 0.909091C7.83783 0.909091 8.73919 1.81136 8.73919 2.95091V3.74454H4.66329V2.95091C4.66117 2.68249 4.71242 2.41633 4.81406 2.16789C4.91569 1.91945 5.06569 1.69368 5.25532 1.50371C5.44496 1.31373 5.67046 1.16333 5.91872 1.06126C6.16698 0.95918 6.43305 0.907456 6.70147 0.909091Z" fill="white"/>
<path d="M11.5374 10.5C8.91834 10.5 6.78516 12.6323 6.78516 15.25C6.78516 17.8682 8.91834 20 11.5374 20C14.1565 20 16.2897 17.8682 16.2897 15.25C16.2897 12.6318 14.1565 10.5 11.5374 10.5ZM11.5374 11.4091C13.6656 11.4091 15.3806 13.1236 15.3806 15.25C15.3806 17.3764 13.6656 19.0909 11.5374 19.0909C11.0326 19.092 10.5326 18.9934 10.066 18.8008C9.59934 18.6082 9.17535 18.3253 8.81829 17.9685C8.46123 17.6116 8.17814 17.1878 7.98525 16.7213C7.79236 16.2548 7.69347 15.7548 7.69425 15.25C7.69353 14.7452 7.79246 14.2452 7.98537 13.7788C8.17828 13.3123 8.46138 12.8885 8.81842 12.5317C9.17547 12.1748 9.59944 11.892 10.066 11.6993C10.5326 11.5067 11.0326 11.4081 11.5374 11.4091Z" fill="white"/>
<path d="M12.9959 13.6059L11.0446 15.9282L10.0527 14.9205C9.96772 14.8368 9.85318 14.7898 9.73385 14.7898C9.61452 14.7898 9.49997 14.8368 9.41494 14.9205C9.32991 15.0042 9.28121 15.118 9.27935 15.2373C9.2775 15.3566 9.32263 15.4719 9.40502 15.5582L10.7473 16.9218C10.7917 16.9669 10.8451 17.0022 10.904 17.0255C10.9628 17.0487 11.0259 17.0594 11.0891 17.0569C11.1524 17.0544 11.2144 17.0387 11.2712 17.0108C11.328 16.9829 11.3784 16.9435 11.4191 16.895L13.6918 14.1905C13.7303 14.1447 13.7594 14.0919 13.7774 14.0349C13.7954 13.9779 13.802 13.918 13.7968 13.8584C13.7916 13.7989 13.7747 13.741 13.7471 13.688C13.7195 13.635 13.6817 13.588 13.6359 13.5496C13.4146 13.375 13.1764 13.4064 12.9959 13.6059Z" fill="white"/>
</svg>
