<svg width="26" height="27" viewBox="0 0 26 27" fill="none" xmlns="http://www.w3.org/2000/svg">
<path d="M8.5498 24.6218L2.11089 18.0403L12.8364 7.07797L19.2753 13.6595L8.5498 24.6218Z" fill="#E57225"/>
<path d="M8.68164 24.7581L6.49113 22.519L17.2166 11.5567L19.4071 13.7957L8.68164 24.7581Z" fill="#F9AE41"/>
<path d="M6.49219 22.5187L4.30168 20.2796L15.0272 9.31733L17.2177 11.5564L6.49219 22.5187Z" fill="#F98821"/>
<path d="M22.733 10.45L24.4539 8.69095C26.2761 6.8286 26.2761 3.80914 24.4538 1.94658C22.632 0.0843765 19.6778 0.0842734 17.8556 1.94689L16.1348 3.70574L22.733 10.45Z" fill="#F23B3B"/>
<path d="M22.733 10.45L24.4539 8.69095C26.2761 6.8286 26.2761 3.80914 24.4538 1.94658C22.632 0.0843765 19.6778 0.0842734 17.8556 1.94689L16.1348 3.70574L22.733 10.45Z" fill="#F23B3B"/>
<path d="M20.1147 4.11721C21.4491 2.75326 23.3183 2.2696 25.0322 2.66552C23.3885 0.162091 19.9284 -0.171772 17.8556 1.94708L16.1348 3.70593L18.3259 5.94555L20.1147 4.11721Z" fill="#C62222"/>
<path d="M22.8818 10.2999L21.1027 12.1185L14.5045 5.37461L16.2837 3.55605L22.8818 10.2999Z" fill="#E6E8E8"/>
<path d="M14.5039 5.37366L21.1019 12.1178L19.3229 13.936L12.7249 7.19193L14.5039 5.37366Z" fill="#D4D6D6"/>
<path d="M16.6503 7.6423L16.6863 7.60555L14.5026 5.37366L12.7236 7.19184L14.9073 9.42378L16.6503 7.6423Z" fill="#C6C6C6"/>
<path d="M16.6865 7.60522L14.5031 5.37348L16.2824 3.55499L18.4657 5.78673L16.6865 7.60522Z" fill="#DDDDDD"/>
<path d="M0.144266 24.8534C0.150771 24.8242 2.10198 18.0691 2.11025 18.0405L8.68192 24.7576L1.90359 26.6516C1.08702 26.8962 -0.482537 27.038 0.144266 24.8534Z" fill="#F4CF9D"/>
<path d="M4.27993 20.2582L2.11025 18.0405C2.10198 18.0691 0.150771 24.8242 0.144266 24.8534C-0.482537 27.038 1.08702 26.8962 1.90359 26.6516L2.48031 26.4906L4.27993 20.2582Z" fill="#EFBF86"/>
<path d="M1.90357 26.6518L3.7398 26.1387L0.676137 23.0072C0.667867 23.0358 0.150751 24.8245 0.144245 24.8535C-0.482507 27.0381 1.08705 26.8963 1.90357 26.6518Z" fill="#6B6968"/>
<path d="M2.84578 25.2249L0.676158 23.0072C0.667887 23.0358 0.150771 24.8245 0.144266 24.8535C-0.482537 27.0381 1.08702 26.8963 1.90359 26.6518L2.48031 26.4907L2.84578 25.2249Z" fill="#51504E"/>
</svg>
