<svg width="24" height="23" viewBox="0 0 24 23" fill="none" xmlns="http://www.w3.org/2000/svg">
<rect x="0.5" y="0.5" width="23" height="22" rx="2.5" fill="white" stroke="#E6E6E6"/>
<path d="M16.4471 8.08466V8.08181L16.413 8.05193C16.2921 7.94586 16.1343 7.89165 15.9737 7.90104C15.8131 7.91044 15.6627 7.98267 15.5549 8.10212L15.5549 8.10213L10.9244 13.2366L10.9243 13.2366C10.8512 13.3178 10.7488 13.3666 10.6397 13.3723C10.5306 13.378 10.4237 13.3402 10.3425 13.2671L10.3425 13.2671L7.92555 11.0929L7.92555 11.0929L7.9249 11.0923C7.86234 11.037 7.7892 10.995 7.70992 10.9688C7.63064 10.9427 7.54686 10.9329 7.46369 10.9401C7.38051 10.9473 7.29967 10.9713 7.22606 11.0107C7.15246 11.0501 7.08762 11.1041 7.03551 11.1693L7.11363 11.2317L7.03564 11.1691C6.93908 11.2894 6.89116 11.4416 6.90135 11.5955C6.91153 11.7494 6.97908 11.8939 7.09065 12.0005L7.09117 12.0009L16.4471 8.08466ZM16.4471 8.08466C16.4927 8.13127 16.5307 8.18495 16.5595 8.24373C16.5952 8.31659 16.616 8.39581 16.6208 8.4768C16.6256 8.55779 16.6142 8.63892 16.5874 8.71547C16.5605 8.79202 16.5187 8.86246 16.4644 8.92271C16.4644 8.92272 16.4644 8.92273 16.4644 8.92273L16.4471 8.08466Z" fill="black" stroke="black" stroke-width="0.2"/>
</svg>
