<svg width="21" height="20" viewBox="0 0 21 20" fill="none" xmlns="http://www.w3.org/2000/svg">
<path fill-rule="evenodd" clip-rule="evenodd" d="M14.95 19.9997C11.7046 19.9997 9.06836 17.3635 9.06836 14.118C9.06836 10.8725 11.7046 8.23633 14.95 8.23633C18.1838 8.23633 20.82 10.8725 20.82 14.118C20.82 17.3635 18.1838 19.9997 14.95 19.9997ZM14.95 8.70499C11.9623 8.70499 9.53702 11.142 9.53702 14.118C9.53702 17.1057 11.9623 19.531 14.95 19.531C17.926 19.531 20.3513 17.1057 20.3513 14.118C20.3513 11.142 17.926 8.70499 14.95 8.70499Z" fill="white"/>
<path fill-rule="evenodd" clip-rule="evenodd" d="M14.9506 19.9997C13.4275 19.9997 12.2207 17.4103 12.2207 14.118C12.2207 10.8257 13.4275 8.23633 14.9506 8.23633C16.4738 8.23633 17.6689 10.8257 17.6689 14.118C17.6689 17.4103 16.4738 19.9997 14.9506 19.9997ZM14.9506 8.70499C13.7321 8.70499 12.7011 11.1889 12.7011 14.118C12.7011 17.0471 13.7321 19.531 14.9506 19.531C16.1692 19.531 17.2002 17.0471 17.2002 14.118C17.2002 11.1889 16.1692 8.70499 14.9506 8.70499Z" fill="white"/>
<path fill-rule="evenodd" clip-rule="evenodd" d="M14.95 16.0988C12.1029 16.0988 9.06836 15.4076 9.06836 14.1188C9.06836 12.8299 12.1029 12.1387 14.95 12.1387C17.7971 12.1387 20.82 12.8299 20.82 14.1188C20.82 15.4076 17.7971 16.0988 14.95 16.0988ZM14.95 12.6073C11.8569 12.6073 9.53702 13.404 9.53702 14.1188C9.53702 14.8335 11.8569 15.6302 14.95 15.6302C18.0432 15.6302 20.3513 14.8335 20.3513 14.1188C20.3513 13.404 18.0432 12.6073 14.95 12.6073Z" fill="white"/>
<path fill-rule="evenodd" clip-rule="evenodd" d="M14.9504 20C14.8215 20 14.716 19.8946 14.716 19.7657V8.471C14.716 8.16637 15.1847 8.16637 15.1847 8.471V19.7657C15.1847 19.8946 15.0793 20 14.9504 20ZM15.1261 4.80375H1.59361C1.19525 4.80375 0.878906 4.49912 0.878906 4.10076V0.702988C0.878906 0.316344 1.19525 0 1.59361 0H15.1261C15.5128 0 15.8291 0.316344 15.8291 0.702988V4.10076C15.8291 4.49912 15.5128 4.80375 15.1261 4.80375ZM1.59361 0.468658C1.45301 0.468658 1.34756 0.574107 1.34756 0.702988V4.10076C1.34756 4.22964 1.45301 4.34681 1.59361 4.34681H15.1261C15.255 4.34681 15.3605 4.24136 15.3605 4.10076V0.702988C15.3605 0.574107 15.255 0.468658 15.1261 0.468658H1.59361Z" fill="white"/>
<path fill-rule="evenodd" clip-rule="evenodd" d="M10.3692 11.0489H1.59361C1.19525 11.0489 0.878906 10.7326 0.878906 10.3459V6.94816C0.878906 6.56152 1.19525 6.24517 1.59361 6.24517H15.1261C15.5128 6.24517 15.8291 6.56152 15.8291 6.94816V8.51817C15.8291 8.82279 15.3605 8.82279 15.3605 8.51817V6.94816C15.3605 6.81928 15.255 6.71383 15.1261 6.71383H1.59361C1.45301 6.71383 1.34756 6.81928 1.34756 6.94816V10.3459C1.34756 10.4748 1.45301 10.5803 1.59361 10.5803H10.3692C10.6739 10.5803 10.6739 11.0489 10.3692 11.0489ZM10.1349 17.2938H1.59361C1.19525 17.2938 0.878906 16.9775 0.878906 16.5908V13.193C0.878906 12.8064 1.19525 12.49 1.59361 12.49H9.47879C9.78342 12.49 9.78342 12.9587 9.47879 12.9587H1.59361C1.45301 12.9587 1.34756 13.0642 1.34756 13.193V16.5908C1.34756 16.7197 1.45301 16.8251 1.59361 16.8251H10.1349C10.4395 16.8251 10.4395 17.2938 10.1349 17.2938ZM2.99959 3.28091C1.86309 3.28091 1.86309 1.53516 2.99959 1.53516C4.1478 1.53516 4.1478 3.28091 2.99959 3.28091ZM2.99959 2.00381C2.47234 2.00381 2.47234 2.81225 2.99959 2.81225C3.52683 2.81225 3.52683 2.00381 2.99959 2.00381ZM7.67445 2.6365H5.90527C5.60064 2.6365 5.60064 2.16785 5.90527 2.16785H7.67445C7.97908 2.16785 7.97908 2.6365 7.67445 2.6365ZM11.0019 2.6365H9.24446C8.93983 2.6365 8.93983 2.16785 9.24446 2.16785H11.0019C11.3183 2.16785 11.3183 2.6365 11.0019 2.6365ZM14.3411 2.6365H12.5837C12.279 2.6365 12.279 2.16785 12.5837 2.16785H14.3411C14.6457 2.16785 14.6575 2.6365 14.3411 2.6365Z" fill="white"/>
<path fill-rule="evenodd" clip-rule="evenodd" d="M2.99886 9.51462C1.86236 9.51462 1.86236 7.78058 2.99886 7.78058C4.14707 7.78058 4.14707 9.51462 2.99886 9.51462ZM2.99886 8.24924C2.47162 8.24924 2.47162 9.04596 2.99886 9.04596C3.5261 9.04596 3.5261 8.24924 2.99886 8.24924ZM7.67373 8.88193H5.90454C5.59991 8.88193 5.59991 8.41327 5.90454 8.41327H7.67373C7.97835 8.41327 7.97835 8.88193 7.67373 8.88193ZM11.0012 8.88193H9.24373C8.9391 8.88193 8.9391 8.41327 9.24373 8.41327H11.0012C11.3175 8.41327 11.3175 8.88193 11.0012 8.88193ZM2.99886 15.7595C1.86236 15.7595 1.86236 14.0255 2.99886 14.0255C4.14707 14.0255 4.14707 15.7595 2.99886 15.7595ZM2.99886 14.4941C2.47162 14.4941 2.47162 15.2908 2.99886 15.2908C3.5261 15.2908 3.5261 14.4941 2.99886 14.4941ZM7.67373 15.1268H5.90454C5.59991 15.1268 5.59991 14.6581 5.90454 14.6581H7.67373C7.97835 14.6581 7.97835 15.1268 7.67373 15.1268ZM10.7669 6.71438H5.93969C5.81081 6.71438 5.70536 6.60893 5.70536 6.48005V4.58199C5.70536 4.4531 5.81081 4.34766 5.93969 4.34766H10.7669C10.8958 4.34766 11.0012 4.4531 11.0012 4.58199V6.48005C11.0012 6.60893 10.8958 6.71438 10.7669 6.71438ZM6.17402 6.24572H10.5325V4.81631H6.17402V6.24572ZM9.47806 12.9593H5.93969C5.81081 12.9593 5.70536 12.8538 5.70536 12.7249V10.8151C5.70536 10.6863 5.81081 10.5808 5.93969 10.5808H10.3685C10.6731 10.5808 10.6731 11.0495 10.3685 11.0495H6.17402V12.4906H9.47806C9.7944 12.4906 9.78269 12.9593 9.47806 12.9593Z" fill="white"/>
</svg>
