<svg width="20" height="20" viewBox="0 0 20 20" fill="none" xmlns="http://www.w3.org/2000/svg">
<path d="M12.3327 3.66732C12.3327 3.20583 12.1958 2.7547 11.9394 2.37099C11.6831 1.98727 11.3186 1.6882 10.8923 1.5116C10.4659 1.335 9.99676 1.28879 9.54414 1.37882C9.09152 1.46885 8.67576 1.69108 8.34943 2.0174C8.02311 2.34373 7.80088 2.75949 7.71085 3.21211C7.62082 3.66473 7.66703 4.13389 7.84363 4.56025C8.02024 4.98661 8.3193 5.35102 8.70302 5.60741C9.08673 5.8638 9.53786 6.00065 9.99935 6.00065C10.618 5.99995 11.2111 5.75389 11.6485 5.31645C12.0859 4.87902 12.332 4.28594 12.3327 3.66732ZM8.33268 3.66732C8.33268 3.33768 8.43043 3.01545 8.61357 2.74137C8.7967 2.46729 9.057 2.25367 9.36154 2.12752C9.66609 2.00137 10.0012 1.96837 10.3245 2.03268C10.6478 2.09699 10.9448 2.25572 11.1779 2.48881C11.4109 2.72189 11.5697 3.01887 11.634 3.34217C11.6983 3.66547 11.6653 4.00058 11.5391 4.30512C11.413 4.60967 11.1994 4.86997 10.9253 5.0531C10.6512 5.23624 10.329 5.33398 9.99935 5.33398C9.55749 5.33346 9.13387 5.15769 8.82142 4.84525C8.50898 4.5328 8.33321 4.10918 8.33268 3.66732Z" fill="white"/>
<path d="M15.3333 0H4.66667C4.31304 0 3.97391 0.140476 3.72386 0.390524C3.47381 0.640573 3.33333 0.979711 3.33333 1.33333C3.33333 1.68696 3.47381 2.02609 3.72386 2.27614C3.97391 2.52619 4.31304 2.66667 4.66667 2.66667H5.33333V5.53667L3.92 7.98333C3.31246 9.02863 3.05875 10.2422 3.19667 11.4433L3.66667 15.6867V16.6667H3.33333C3.24493 16.6667 3.16014 16.7018 3.09763 16.7643C3.03512 16.8268 3 16.9116 3 17V19.6667C3 19.7551 3.03512 19.8399 3.09763 19.9024C3.16014 19.9649 3.24493 20 3.33333 20H9.33333C9.42174 20 9.50652 19.9649 9.56904 19.9024C9.63155 19.8399 9.66667 19.7551 9.66667 19.6667V17C9.66667 16.9116 9.63155 16.8268 9.56904 16.7643C9.50652 16.7018 9.42174 16.6667 9.33333 16.6667H9.05667L9.47667 15.9667C9.81974 15.396 10.0007 14.7425 10 14.0767V13.6433C10.0006 13.1762 9.91122 12.7133 9.73667 12.28L9.62333 12H14.3333C14.4217 12 14.5065 11.9649 14.569 11.9024C14.6315 11.8399 14.6667 11.7551 14.6667 11.6667V2.66667H15.3333C15.687 2.66667 16.0261 2.52619 16.2761 2.27614C16.5262 2.02609 16.6667 1.68696 16.6667 1.33333C16.6667 0.979711 16.5262 0.640573 16.2761 0.390524C16.0261 0.140476 15.687 0 15.3333 0ZM6 9.02333C6.22918 9.05186 6.45344 9.11129 6.66667 9.2V11.3333H6V9.02333ZM4.66667 2C4.49002 1.99947 4.32076 1.92907 4.19584 1.80416C4.07093 1.67924 4.00053 1.50998 4 1.33333C4.00131 1.15693 4.07197 0.988117 4.19671 0.863375C4.32145 0.738633 4.49026 0.667975 4.66667 0.666667H5.33333V2H4.66667ZM9 19.3333H3.66667V17.3333H9V19.3333ZM9.33333 14.0767C9.33409 14.6218 9.18537 15.1568 8.90333 15.6233L8.38 16.4967C8.34947 16.5481 8.33335 16.6068 8.33333 16.6667H4.33333V15.6667C4.33388 15.6544 4.33276 15.642 4.33 15.63L3.85667 11.37C3.73772 10.3095 3.96328 9.23897 4.5 8.31667L5.33333 6.87V11.6667C5.33333 11.7551 5.36845 11.8399 5.43096 11.9024C5.49348 11.9649 5.57826 12 5.66667 12H6.66667V12.3333H7.33333V9C7.33386 8.82335 7.40427 8.65409 7.52918 8.52918C7.65409 8.40427 7.82335 8.33386 8 8.33333C8.17641 8.33464 8.34522 8.4053 8.46996 8.53004C8.5947 8.65478 8.66536 8.82359 8.66667 9V11.3333C8.66602 11.3756 8.67396 11.4176 8.69 11.4567L9.11667 12.53C9.26069 12.8835 9.33429 13.2617 9.33333 13.6433V14.0767ZM14 11.3333H11.69C11.7644 10.7467 12.0317 10.2014 12.4499 9.7832C12.868 9.36503 13.4133 9.09773 14 9.02333V11.3333ZM14 8.35C13.2352 8.42761 12.5207 8.76686 11.9771 9.31043C11.4335 9.854 11.0943 10.5685 11.0167 11.3333H9.36L9.33333 11.27V9C9.33388 8.68894 9.22546 8.38751 9.0269 8.14806C8.82834 7.90861 8.55218 7.74627 8.24639 7.68923C7.9406 7.63219 7.6245 7.68406 7.35296 7.83582C7.08143 7.98758 6.87163 8.22966 6.76 8.52C6.51414 8.43462 6.25903 8.37868 6 8.35333V0.666667H14V8.35ZM15.8033 1.80333C15.7419 1.86558 15.6687 1.91501 15.588 1.94877C15.5074 1.98253 15.4208 1.99994 15.3333 2H14.6667V0.666667H15.3333C15.51 0.667194 15.6792 0.737602 15.8042 0.862512C15.9291 0.987422 15.9995 1.15668 16 1.33333C15.9999 1.42079 15.9825 1.50737 15.9488 1.58804C15.915 1.66872 15.8656 1.7419 15.8033 1.80333ZM19.302 10.8587C19.2751 10.8013 19.2324 10.7527 19.1789 10.7187C19.1255 10.6847 19.0634 10.6666 19 10.6667H18.3333V4.66667H17.6667V11C17.6667 11.0884 17.7018 11.1732 17.7643 11.2357C17.8268 11.2982 17.9116 11.3333 18 11.3333H18.2883L17.3333 12.4793L16.3783 11.3333H16.6667C16.7551 11.3333 16.8399 11.2982 16.9024 11.2357C16.9649 11.1732 17 11.0884 17 11V4.66667H16.3333V10.6667H15.6667C15.6033 10.6667 15.5413 10.6848 15.4879 10.7188C15.4344 10.7528 15.3918 10.8013 15.3649 10.8586C15.3381 10.916 15.3281 10.9798 15.3362 11.0426C15.3443 11.1055 15.3701 11.1647 15.4107 11.2133L17.0773 13.2133C17.1086 13.2508 17.1478 13.281 17.192 13.3017C17.2362 13.3224 17.2845 13.3332 17.3333 13.3332C17.3822 13.3332 17.4304 13.3224 17.4747 13.3017C17.5189 13.281 17.558 13.2508 17.5893 13.2133L19.256 11.2133C19.2966 11.1647 19.3224 11.1055 19.3306 11.0427C19.3387 10.9799 19.3288 10.916 19.302 10.8587Z" fill="white"/>
<path d="M3.96854 6.192C3.94167 6.1346 3.89898 6.08604 3.84549 6.05204C3.792 6.01803 3.72993 5.99998 3.66654 6H2.99988V0H2.33321V6.33333C2.33321 6.42174 2.36833 6.50652 2.43084 6.56904C2.49335 6.63155 2.57814 6.66667 2.66654 6.66667H2.95488L1.99988 7.81267L1.04488 6.66667H1.33321C1.42161 6.66667 1.5064 6.63155 1.56891 6.56904C1.63142 6.50652 1.66654 6.42174 1.66654 6.33333V0H0.999875V6H0.333209C0.269871 6.00002 0.20785 6.01809 0.15441 6.05209C0.10097 6.08609 0.0583222 6.13461 0.0314609 6.19197C0.00459954 6.24933 -0.00536344 6.31315 0.00273857 6.37597C0.0108406 6.43879 0.0366722 6.498 0.0772086 6.54667L1.74388 8.54667C1.77516 8.58418 1.8143 8.61436 1.85854 8.63507C1.90278 8.65578 1.95103 8.66652 1.99988 8.66652C2.04872 8.66652 2.09697 8.65578 2.14121 8.63507C2.18545 8.61436 2.22459 8.58418 2.25588 8.54667L3.92254 6.54667C3.96311 6.49803 3.98899 6.43884 3.99713 6.37603C4.00528 6.31321 3.99536 6.24938 3.96854 6.192Z" fill="white"/>
</svg>
